<?xml version="1.0" standalone="no"?>
<!DOCTYPE svg PUBLIC "-//W3C//DTD SVG 1.1//EN" "http://www.w3.org/Graphics/SVG/1.1/DTD/svg11.dtd" >
<svg>
<metadata>
Created by FontForge 20090914 at Thu May 17 17:05:33 2012
 By ffonts
Copyright (c) 2012 by Alvaro Thomaz Fonts. All rights reserved.
</metadata>
<defs>
<font id="Homizio-Bold" horiz-adv-x="1088" >
  <font-face 
    font-family="Homizio"
    font-weight="700"
    font-stretch="normal"
    units-per-em="2048"
    panose-1="2 0 5 6 0 0 0 2 0 4"
    ascent="1638"
    descent="-410"
    x-height="1024"
    cap-height="1434"
    bbox="-172 -445 2239 1897"
    underline-thickness="119"
    underline-position="-119"
    unicode-range="U+000D-U+FB06"
  />
<missing-glyph horiz-adv-x="1151" 
d="M52 0v1399h1014v-1399h-1014zM269 217h580v966h-580v-966z" />
    <glyph glyph-name="AE" unicode="AE" horiz-adv-x="1587" 
d="M792 0v422h-413q-14 -26 -27 -54.5t-27 -55.5l-27.5 -55.5l-26.5 -56.5l-24.5 -49.5l-25.5 -50.5l-24.5 -51l-23.5 -49h-189l697 1434h822v-169h-541v-463h503v-162h-503v-478h572v-162h-742zM792 1265h-12l-159 -335l-160 -334q-2 -5 -1.5 -4t-3.5 -7h336v680z" />
    <glyph glyph-name="OE" unicode="OE" horiz-adv-x="1755" 
d="M996 0q-36 -5 -74 -9.5t-73.5 -7.5t-67.5 -5t-56 -2q-326 0 -507 204q-180 205 -180 522q0 167 48.5 305.5t137.5 242.5q94 99 225 153t292 54q29 0 63 -2t68.5 -5t67 -7.5l59.5 -8.5h666v-163h-542v-467h502v-162h-502v-480h572v-162h-699zM954 1275q-57 10 -109 15
t-110 5q-122 0 -217 -40.5t-166 -120.5h1q-143 -162 -143 -421q0 -127 36 -234t99 -185l-1 1q68 -76 163 -116t216 -40q56 0 112.5 6t118.5 17v1113z" />
    <glyph glyph-name="oe" unicode="oe" horiz-adv-x="1844" 
d="M1023 471q5 -74 25 -137t56 -106q80 -98 218 -98q73 0 155 35.5t170 104.5l67 -144q-109 -75 -208.5 -112.5t-196.5 -37.5q-125 0 -218 57.5t-153 163.5q-127 -221 -400 -221q-114 0 -203 38.5t-156 113.5q-61 72 -94 168.5t-33 209.5q0 129 34 227t103 170t158.5 108.5
t200.5 36.5q78 0 145.5 -21t126.5 -62q78 -57 123 -139q65 106 159.5 164t219.5 58q96 0 171 -35.5t129 -104.5q49 -65 75.5 -156.5t26.5 -205.5v-75h-701zM1556 624q-13 130 -74 200t-166 70q-57 0 -107 -21.5t-88 -58.5q-30 -35 -53.5 -84t-33.5 -106h522zM545 894
q-150 0 -240 -101q-45 -51 -66.5 -123t-21.5 -166q0 -87 21 -154.5t66 -118.5q87 -101 237 -101q76 0 135 25.5t100 73.5v-1q41 50 62.5 121.5t21.5 162.5q0 186 -81.5 284t-233.5 98z" />
    <glyph glyph-name="fi" unicode="fi" horiz-adv-x="856" 
d="M803 1024v-1024h-161v871h-311v-871h-161v871h-170v153h170v127q0 165 86 254q88 90 216 90q68 0 184 -58l-71 -143q-31 23 -59.5 35t-57.5 12q-137 0 -137 -198v-119h472z" />
    <glyph glyph-name="fl" unicode="fl" horiz-adv-x="1117" 
d="M656 1264q-14 35 -58 56t-116 21q-137 0 -137 -198v-119h251v-153h-251v-871h-161v871h-171v153h171v127q0 80 22 144.5t64 109.5q44 43 97.5 66.5t118.5 23.5q297 0 330 -221v-992q0 -78 22.5 -113t75.5 -35q23 0 60 15t92 47v-169q-48 -24 -88.5 -35t-73.5 -11
q-248 0 -248 291v992z" />
    <glyph glyph-name="ae" unicode="ae" horiz-adv-x="1826" 
d="M401 286q0 -70 44 -112q47 -44 129 -44q59 0 110 17t89 44q32 27 53.5 52.5t27.5 43.5v128q-55 35 -107.5 49t-105.5 14q-50 0 -94 -14t-76.5 -39.5t-51 -61t-18.5 -77.5zM907 966q17 -19 32 -40.5l28 -41.5q62 84 149.5 124t202.5 40q193 0 301 -141q102 -132 102 -361
v-75h-701q5 -75 25 -138.5t56 -105.5q38 -48 93.5 -72.5t125.5 -24.5q74 0 146.5 30t147.5 90l80 -130q-99 -72 -196 -108t-196 -36q-125 0 -215 46t-150 138q-45 -50 -89 -85t-89 -57t-92.5 -32t-100.5 -10q-74 0 -135.5 23.5t-106.5 65.5q-90 88 -90 221q8 84 43.5 147.5
t89.5 106.5t122 64.5t141 21.5q57 0 114 -13.5t110 -37.5v79q-5 52 -19.5 96t-38.5 76t-57 50t-75 18q-156 -2 -294 -128l-107 109q83 88 185.5 131t223.5 42q164 0 235 -82h-1zM1555 624q-13 130 -74 200t-166 70q-59 0 -107.5 -20.5t-86.5 -58.5q-32 -35 -55 -82.5
t-34 -108.5h523z" />
    <glyph glyph-name=".notdef" horiz-adv-x="1151" 
d="M52 0v1399h1014v-1399h-1014zM269 217h580v966h-580v-966z" />
    <glyph glyph-name="uni000D" unicode="&#xd;" horiz-adv-x="0" 
 />
    <glyph glyph-name="nonmarkingreturn" horiz-adv-x="199" 
 />
    <glyph glyph-name="space" unicode=" " horiz-adv-x="561" 
 />
    <glyph glyph-name="exclam" unicode="!" horiz-adv-x="220" 
d="M183 374h-156l-8 1030h172zM107 -17q-24 0 -44.5 8.5t-35.5 24t-23.5 36t-8.5 44.5q0 51 32 81.5t80 30.5q24 0 45 -8t36 -23t24 -35.5t9 -45.5q0 -24 -9 -44.5t-24 -36t-36 -24t-45 -8.5z" />
    <glyph glyph-name="quotedbl" unicode="&#x22;" horiz-adv-x="498" 
d="M427 912h-145l-10 492h165zM198 912h-147l-8 492h164z" />
    <glyph glyph-name="numbersign" unicode="#" horiz-adv-x="1136" 
d="M1065 876h-250q-3 -17 -7 -33.5l-8 -33.5q-3 -11 -5.5 -22t-4.5 -22q-5 -19 -8.5 -34t-6.5 -29.5l-6.5 -31t-7.5 -38.5h263l-35 -149h-259q-2 -7 -3 -14.5t-3 -15.5l-10.5 -50.5t-11.5 -51.5l-13.5 -58t-14 -62.5l-13 -61.5l-11.5 -55h-155l81 369h-167q-5 -20 -9 -39.5
t-9 -39.5l-12 -53l-13 -60.5l-14 -62.5q-5 -29 -12.5 -59.5t-12.5 -54.5h-154l80 369h-262l37 149h256l9.5 41.5l8.5 39.5q3 11 5.5 22t4.5 22l9 40.5t9 38.5l5 18t5 22h-273l36 148h266q5 26 11 51.5l12 52.5l7.5 35t6.5 35q5 25 11.5 54t13.5 57l11 49.5l10 45.5h154
l-85 -380h172q5 26 11 51.5t11 52.5l7.5 35l7.5 35l6 30.5t7 31.5q8 35 15.5 74.5t15.5 69.5h154l-84 -380h257zM494 876q-3 -13 -6.5 -26t-6.5 -26q-8 -32 -14 -59q-2 -11 -4.5 -21t-4.5 -21q-5 -24 -8.5 -42.5t-10.5 -48.5h166l8.5 38.5t9.5 36.5v-1l6 26l6 25
q2 11 4.5 21.5l4.5 18.5q5 21 8 37l8 42h-166z" />
    <glyph glyph-name="dollar" unicode="$" horiz-adv-x="785" 
d="M453 -193h-147v193q-37 3 -76.5 11t-79 19t-77 26.5t-70.5 33.5v186q170 -110 303 -122v492q-87 51 -146 97t-91 84q-66 87 -66 203q0 70 23 131t67 112q39 46 94 77t119 47v173h147v-166q130 -6 241 -52v-189q-63 38 -124.5 59.5t-116.5 25.5v-502q76 -42 134.5 -85.5
t92.5 -84.5q36 -45 55.5 -97.5t19.5 -110.5q0 -70 -23.5 -132.5t-65.5 -110.5q-37 -40 -95 -71t-118 -46v-201zM306 1235q-56 -18 -91 -58q-25 -26 -36.5 -60.5t-11.5 -75.5q0 -35 8 -65.5t27 -53.5q14 -20 41 -44t63 -47v404zM453 167q70 23 103.5 70.5t33.5 113.5
q0 33 -10 65t-27 57q-17 20 -40 42t-60 45v-393z" />
    <glyph glyph-name="percent" unicode="%" horiz-adv-x="1551" 
d="M384 676q-79 0 -143 27.5t-110 79.5q-45 52 -68.5 118.5t-23.5 147.5q0 176 99 278q96 103 256 103q76 0 138.5 -26.5t108.5 -76.5q45 -51 68.5 -120t23.5 -157q0 -160 -95 -267t-254 -107zM392 1278q-91 0 -142 -60.5t-51 -170.5q0 -107 51 -165q51 -57 136 -57
q41 0 76.5 16.5t59.5 42.5q51 65 51 168q0 112 -48.5 169t-132.5 57zM408 -30h-181l844 1432h178zM1110 -24q-78 0 -142.5 27t-112.5 79q-44 51 -67.5 118.5t-23.5 150.5q0 91 25.5 160t74.5 121q51 50 114 75.5t141 25.5t139.5 -26t109.5 -77q91 -105 91 -278
q0 -158 -95 -267q-49 -54 -111.5 -81.5t-142.5 -27.5zM1117 580q-86 0 -139 -59q-53 -60 -53 -172q0 -106 51 -166q50 -56 136 -56q45 0 79 15t57 42q52 66 52 170q0 112 -49 169t-134 57z" />
    <glyph glyph-name="ampersand" unicode="&#x26;" horiz-adv-x="1343" 
d="M1094 0l-161 159q-96 -94 -206 -138.5t-240 -44.5q-106 0 -188 28.5t-142 82.5q-62 57 -91.5 127t-29.5 158q0 259 285 405q-61 78 -94 156.5t-33 147.5q0 143 102 244q104 101 263 101q147 0 234 -87q88 -88 88 -219q0 -70 -22 -129.5t-64 -109.5q-36 -42 -86.5 -80
t-120.5 -72l66.5 -69l74.5 -75l88 -86l107 -101q87 151 93 380h166q-4 -140 -41.5 -262t-104.5 -231l82 -79l86.5 -81.5l78.5 -73l59 -54.5zM359 1079q0 -96 117 -234q66 31 112 62.5t74 60.5q52 58 52 141q0 37 -11.5 67.5t-34.5 51.5q-49 44 -118 44q-89 0 -139 -56
q-26 -27 -39 -61.5t-13 -75.5zM495 130q94 0 173 33.5t154 105.5l-131.5 127.5l-107.5 104.5l-86 85.5l-68 71.5q-106 -54 -166.5 -125.5t-60.5 -154.5q0 -51 20.5 -97.5t54.5 -81.5q38 -33 94 -51t124 -18z" />
    <glyph glyph-name="quotesingle" unicode="'" horiz-adv-x="233" 
d="M185 912h-147l-9 492h164z" />
    <glyph glyph-name="parenleft" unicode="(" horiz-adv-x="461" 
d="M300 -302q-301 351 -301 844q0 515 305 862h195q-339 -388 -339 -860q0 -445 329 -846h-189z" />
    <glyph glyph-name="parenright" unicode=")" horiz-adv-x="462" 
d="M-43 -302q326 399 326 846q0 470 -336 860h193q151 -175 227.5 -389.5t76.5 -472.5q0 -496 -300 -844h-187z" />
    <glyph glyph-name="asterisk" unicode="*" horiz-adv-x="740" 
d="M469 988q5 -8 9.5 -13t10.5 -13q10 -12 20.5 -26.5l19.5 -27.5l28.5 -37.5l31 -41.5l29.5 -40.5l25 -34.5l-134 -91l-151 242l-11 -17.5t-12 -17.5l-23 -35.5l-22 -35.5h1l-21.5 -33.5l-23.5 -36.5l-23 -35.5t-20 -30.5l-132 92l173 233q-6 2 -12 3.5t-12 3.5l-57.5 14.5
l-61 15l-59.5 15l-53 13.5l46 156l254 -90q0 5 -0.5 8t-1.5 8q-1 8 -1 16.5t-1 16.5q-2 47 -5 100t-5 99q0 7 -0.5 18.5t-0.5 18.5h164l-13 -285l63 23l67.5 24l65 23l56.5 20l47 -156z" />
    <glyph glyph-name="plus" unicode="+" horiz-adv-x="917" 
d="M518 514v-382h-153v382h-381v153h381v383h153v-383h382v-153h-382z" />
    <glyph glyph-name="comma" unicode="," horiz-adv-x="283" 
d="M120 -230h-149l162 516h177z" />
    <glyph glyph-name="hyphen" unicode="-" horiz-adv-x="708" 
d="M48 514v159h583v-159h-583z" />
    <glyph glyph-name="period" unicode="." horiz-adv-x="278" 
d="M134 -17q-24 0 -44.5 8.5t-35.5 24t-23.5 36t-8.5 44.5q0 51 32 81.5t80 30.5q23 0 44 -8t36.5 -23t24.5 -35.5t9 -45.5q0 -24 -9 -44.5t-24.5 -36t-36.5 -24t-44 -8.5z" />
    <glyph glyph-name="slash" unicode="/" horiz-adv-x="797" 
d="M126 -221h-165l673 1625h172z" />
    <glyph glyph-name="zero" unicode="0" horiz-adv-x="986" 
d="M464 -24q-205 0 -320 188h1q-56 89 -83 216t-27 293q0 374 118.5 563.5t338.5 189.5q422 0 422 -719q0 -174 -28.5 -308t-86.5 -226h1q-119 -197 -336 -197zM484 1272q-134 0 -209 -146.5t-75 -440.5q0 -134 20.5 -242t55.5 -181v1q36 -63 87 -98t111 -35t110 37t85 99
v-1q37 75 58 183.5t21 245.5q0 578 -264 578z" />
    <glyph glyph-name="one" unicode="1" horiz-adv-x="524" 
d="M295 0v1248l-32 -11.5l-33 -11.5l-95.5 -35l-94.5 -33l-36 -12t-33 -12v165l485 165v-1463h-161z" />
    <glyph glyph-name="two" unicode="2" horiz-adv-x="913" 
d="M29 0v144l372 396l81 90l71.5 83t57 71.5t37.5 53.5q57 90 57 200q0 112 -62 173t-177 61q-162 0 -369 -183v203q88 66 182.5 100t197.5 34q189 0 288 -103q104 -103 104 -273q0 -74 -17 -141t-52 -125q-16 -27 -44 -64t-65 -81.5l-82.5 -96l-96.5 -106.5l-69.5 -73
l-65.5 -68.5l-65 -68.5l-69 -73h620v-153h-834z" />
    <glyph glyph-name="three" unicode="3" horiz-adv-x="855" 
d="M3 250q101 -60 181.5 -90t143.5 -30q72 0 128.5 17.5t95.5 53.5q79 73 79 187q0 130 -93.5 196t-268.5 66h-142v153h130q160 0 243 65.5t83 185.5q0 103 -58 160.5t-169 57.5q-115 0 -300 -117v183q90 45 167.5 66.5t145.5 21.5q85 0 154.5 -25t119.5 -71q51 -48 78 -112
t27 -141q0 -234 -177 -335q38 -15 70.5 -37.5t59.5 -51.5q46 -49 70 -112t24 -140q0 -194 -132 -310q-66 -57 -149.5 -86t-187.5 -29q-158 0 -323 87v187z" />
    <glyph glyph-name="four" unicode="4" horiz-adv-x="982" 
d="M757 377v-377h-161v377h-612v118l630 909h143v-875h176v-152h-176zM596 1109l-44.5 -64l-43.5 -64l-158 -227l-157 -225h403v580z" />
    <glyph glyph-name="five" unicode="5" horiz-adv-x="823" 
d="M25 228q175 -98 292 -98q148 0 228 79t80 213q0 285 -331 285q-70 -1 -127.5 -17.5t-105.5 -52.5v767h674v-154h-513v-393q36 2 61.5 3t42.5 1q115 0 202 -29t145.5 -84.5t88 -135t29.5 -179.5q0 -202 -127 -329q-63 -63 -151.5 -95.5t-203.5 -32.5q-76 0 -147 16
t-137 49v187z" />
    <glyph glyph-name="six" unicode="6" horiz-adv-x="945" 
d="M816 1205q-73 34 -130 50.5t-104 16.5q-87 0 -157.5 -43.5t-121.5 -124.5h1q-41 -66 -67 -147.5t-36 -176.5q54 62 126.5 94t164.5 32q88 0 162.5 -33.5t128.5 -97.5q53 -63 80.5 -142t27.5 -174q0 -106 -29.5 -191.5t-91.5 -153.5q-126 -138 -312 -138q-207 0 -318 171
q-109 166 -109 474q0 181 35.5 324.5t105.5 253.5q149 227 412 227q60 0 117.5 -11.5t114.5 -32.5v-177zM472 752q-26 0 -52 -6.5t-50.5 -18t-47 -27t-40.5 -33.5q-34 -43 -55.5 -94t-21.5 -100q0 -68 19.5 -131t54.5 -114q35 -42 84 -70t101 -28q113 0 185 86
q40 45 58 100.5t18 124.5q0 142 -70 230v-1q-34 39 -79.5 60.5t-103.5 21.5z" />
    <glyph glyph-name="seven" unicode="7" horiz-adv-x="888" 
d="M319 0h-176l515 1250h-672v154h876v-70z" />
    <glyph glyph-name="eight" unicode="8" horiz-adv-x="951" 
d="M31 351q0 125 62 218t193 162q-106 63 -158 145.5t-52 189.5q0 155 112 257q110 103 287 103q162 0 263 -95q103 -94 103 -243q0 -222 -219 -349q262 -126 262 -375q0 -175 -119 -281q-61 -52 -143.5 -79.5t-191.5 -27.5q-91 0 -162.5 26.5t-126.5 77.5
q-110 106 -110 271zM241 1079q0 -168 213 -263q222 94 222 261q0 93 -58 144q-57 51 -156 51q-45 0 -85.5 -14.5t-72.5 -41.5q-28 -26 -45.5 -62.5t-17.5 -74.5zM720 352q0 106 -67 175.5t-203 118.5q-139 -57 -197 -124q-58 -62 -58 -168q0 -95 69 -161v1
q36 -31 85.5 -47.5t109.5 -16.5t109 16.5t85 47.5v-1q31 34 49 74t18 85z" />
    <glyph glyph-name="nine" unicode="9" horiz-adv-x="946" 
d="M89 201q154 -71 232 -71q169 0 268.5 124t120.5 369q-53 -61 -124 -89.5t-164 -28.5q-90 0 -164 31t-128 95h1q-113 126 -113 318q0 109 30.5 193.5t93.5 151.5q126 132 315 132q97 0 176 -43.5t134 -124.5t83.5 -199t28.5 -271q0 -191 -36 -340.5t-105 -255.5
q-72 -103 -178 -159.5t-241 -56.5q-49 0 -106 11.5t-124 37.5v176zM445 1272q-114 0 -186 -85q-75 -85 -75 -219q0 -148 72 -229t187 -81q105 0 183 78q77 80 77 187q0 161 -76 256q-71 93 -182 93z" />
    <glyph glyph-name="colon" unicode=":" horiz-adv-x="253" 
d="M123 816q-24 0 -44.5 9t-36 24t-24 36t-8.5 45t8.5 44.5t24 35t36 23t44.5 8.5t45 -8.5t36 -23t24 -35t9 -44.5t-9 -45t-24 -36t-36 -24t-45 -9zM123 -17q-24 0 -44.5 8.5t-36 24t-24 36t-8.5 44.5q0 51 32.5 81.5t80.5 30.5q24 0 45 -8t36 -23t24 -35.5t9 -45.5
q0 -24 -9 -44.5t-24 -36t-36 -24t-45 -8.5z" />
    <glyph glyph-name="semicolon" unicode=";" horiz-adv-x="294" 
d="M192 816q-25 0 -45.5 9t-35.5 24t-23 36t-8 45q0 48 30.5 79.5t81.5 31.5q23 0 43.5 -8.5t35.5 -23t24 -35t9 -44.5t-9 -45t-24 -36t-35.5 -24t-43.5 -9zM113 -230h-149l162 516h178z" />
    <glyph glyph-name="less" unicode="&#x3c;" horiz-adv-x="910" 
d="M-22 552v61l848 476v-174l-589 -329l109 -54l111 -54l60 -30l61 -29l38.5 -20t39.5 -19l86 -42.5l84 -41.5v-175z" />
    <glyph glyph-name="equal" unicode="=" horiz-adv-x="1001" 
d="M56 694v154h915v-154h-915zM56 334v155h915v-155h-915z" />
    <glyph glyph-name="greater" unicode="&#x3e;" horiz-adv-x="909" 
d="M50 121v175l587 290q-10 5 -20 11l-21 12l-116 64l-116 65q-22 11 -43 23l-136.5 78l-134.5 76v174l846 -476v-61z" />
    <glyph glyph-name="question" unicode="?" horiz-adv-x="754" 
d="M285 369q-7 17 -13.5 38t-11 44t-7 46t-2.5 44q0 48 13 88.5t35.5 76t53.5 68t68 64.5v-1q27 24 53 51t47 58t33.5 66t12.5 76q0 42 -14.5 75t-40 56.5t-62 35.5t-79.5 12q-79 0 -150 -33.5t-118 -94.5l-134 76q130 205 403 211q77 0 143 -22t114 -64.5t75.5 -104
t27.5 -139.5q0 -59 -16 -107t-41.5 -88.5t-57.5 -75t-65 -66.5l-75 -73.5t-45.5 -52.5t-22.5 -44t-6 -47q0 -37 11 -84.5t25 -88.5h-154zM344 -17q-24 0 -44 8.5t-35 24t-23.5 36t-8.5 44.5q0 51 31.5 81.5t79.5 30.5q49 0 82 -30.5t33 -81.5q0 -24 -9 -44.5t-24.5 -36
t-36.5 -24t-45 -8.5z" />
    <glyph glyph-name="at" unicode="@" horiz-adv-x="1701" 
d="M1215 175q-89 0 -149.5 36t-87.5 108q-94 -144 -258 -144q-74 0 -132.5 26t-102.5 80q-84 102 -84 272q0 222 114 374q117 156 308 156q42 0 79 -11.5t69 -33.5q6 -5 12 -9t11 -9q1 12 3 24t5 25h156l-51 -583q2 -73 28.5 -115.5t74.5 -42.5q97 0 158 98q35 51 52 121
t17 156q0 261 -156 416q-156 153 -443 153q-65 0 -128 -14t-121 -39.5t-109.5 -60t-94.5 -76.5h1q-82 -96 -129 -217t-47 -257q0 -289 166 -459q167 -170 455 -170q112 0 212 23t192 68l94 -117q-140 -63 -266.5 -95.5t-241.5 -32.5q-350 0 -563 218q-213 221 -213 565
q0 347 230 583q229 235 572 235q171 0 307 -51t240 -151q208 -202 208 -511q0 -116 -27.5 -212t-80.5 -170q-54 -76 -125.5 -116t-153.5 -40zM819 929q-114 0 -181 -96q-72 -101 -72 -272q0 -109 43 -171t121 -62q51 0 92.5 28.5t73.5 80.5q32 60 51 139.5t19 169.5
q0 91 -39 137t-108 46z" />
    <glyph glyph-name="A" unicode="A" horiz-adv-x="1227" 
d="M1020 0l-155 422h-537l-39 -103.5l-40.5 -108l-40 -108l-37.5 -102.5h-184l541 1434h141l535 -1434h-184zM595 1155l-2 6v-1q-1 2 -1 2.5t-1 2.5q-2 3 -5 12l18 -1q-2 -3 -3 -6.5t-3 -6.5v1zM595 1155l-33 -90v1l-37.5 -103.5l-37.5 -101.5l-34.5 -97l-34.5 -96
l-14.5 -40.5l-15.5 -42.5h416z" />
    <glyph glyph-name="B" unicode="B" horiz-adv-x="947" 
d="M51 0v1434h394q173 0 281 -97q108 -99 108 -255q0 -103 -41.5 -184.5t-120.5 -132.5q40 -14 72.5 -36t61.5 -52q46 -50 69.5 -111.5t23.5 -139.5q0 -185 -122 -307q-122 -119 -324 -119h-402zM220 1271v-447h151q68 0 120.5 15.5t91.5 50.5q76 62 76 175q0 206 -250 206
h-189zM220 661v-499h214q143 0 217 66t74 190q0 243 -343 243h-162z" />
    <glyph glyph-name="C" unicode="C" horiz-adv-x="1193" 
d="M694 -24q-295 0 -482 199q-92 100 -138.5 227t-46.5 287q0 346 202 557q201 211 511 211q227 -4 424 -171l-132 -119q-69 65 -143 96.5t-151 31.5q-55 0 -109 -12t-104 -34t-94.5 -51.5t-81.5 -64.5q-71 -81 -109.5 -190.5t-38.5 -243.5q0 -125 37.5 -230.5t102.5 -180.5
q70 -69 162.5 -109t198.5 -40q78 0 151.5 31.5t142.5 96.5l132 -119q-196 -168 -434 -172z" />
    <glyph glyph-name="D" unicode="D" horiz-adv-x="1220" 
d="M54 0v1434h378q358 0 543 -178t185 -520q0 -326 -200 -532q-200 -204 -547 -204h-359zM224 1271v-1109h176q136 0 248.5 39.5t187.5 105.5q69 72 109.5 181t40.5 245q0 538 -569 538h-193z" />
    <glyph glyph-name="E" unicode="E" horiz-adv-x="785" 
d="M47 0v1434h711v-163h-540v-467h502v-162h-502v-480h572v-162h-743z" />
    <glyph glyph-name="F" unicode="F" horiz-adv-x="748" 
d="M217 1271v-477h502v-162h-502v-632h-171v1434h711v-163h-540z" />
    <glyph glyph-name="G" unicode="G" horiz-adv-x="1223" 
d="M742 1457q220 -4 413 -170l-132 -120q-137 128 -294 128q-238 0 -386 -163q-143 -163 -143 -421q0 -131 36 -238t99 -185q67 -66 162 -107.5t204 -41.5q82 0 151.5 15t131.5 48v388h-319v163h490v-643q-121 -67 -237.5 -100.5t-232.5 -33.5q-149 0 -267.5 49.5
t-210.5 152.5q-181 199 -181 519q0 323 195 541q195 219 521 219z" />
    <glyph glyph-name="H" unicode="H" horiz-adv-x="1175" 
d="M921 0v651h-699v-651h-172v1434h172v-620h699v620h171v-1434h-171z" />
    <glyph glyph-name="I" unicode="I" horiz-adv-x="259" 
d="M208 1434v-1434h-171v1434h171z" />
    <glyph glyph-name="J" unicode="J" horiz-adv-x="549" 
d="M499 311q0 -531 -380 -531q-30 0 -70.5 7t-95.5 22l67 159q29 -11 54 -17.5t47 -6.5q55 0 94.5 22t64.5 67.5t36.5 115t11.5 164.5v1121h171v-1123z" />
    <glyph glyph-name="K" unicode="K" horiz-adv-x="997" 
d="M768 0l-549 616v-616h-171v1434h171v-579q8 11 16 20.5l18 20.5l50 56l109 120.5l112.5 124.5l111 122l104.5 115h224l-629 -696l143 -158l146 -161l106.5 -117.5l106.5 -117.5l39 -43.5l44.5 -50l44.5 -49l39 -41.5h-236z" />
    <glyph glyph-name="L" unicode="L" horiz-adv-x="750" 
d="M44 0v1434h171v-1272h544v-162h-715z" />
    <glyph glyph-name="M" unicode="M" horiz-adv-x="1490" 
d="M726 301l-1 2zM1230 0v1002l1 14l-234 -510l-231 -506h-77l-465 1015v-1015h-171v1434h148l522 -1127q1 -3 1.5 -7t1.5 -6v7l3 -6q2 4 3.5 8l3.5 9q1 2 1.5 4.5t2.5 6.5l510 1111h147v-1434h-167z" />
    <glyph glyph-name="N" unicode="N" horiz-adv-x="1235" 
d="M1028 0l-809 1095v-1095h-170v1434h130l802 -1087v1087h170v-1434h-123z" />
    <glyph glyph-name="O" unicode="O" horiz-adv-x="1447" 
d="M698 -24q-304 0 -486 203q-181 206 -181 523q0 168 48.5 305.5t136.5 240.5q94 100 222.5 154.5t286.5 54.5q146 0 264.5 -49.5t206.5 -152.5h-1q182 -198 182 -517q0 -351 -185 -557q-187 -205 -494 -205zM708 1295q-112 0 -201 -40t-161 -119q-142 -159 -142 -423
q0 -265 136 -420q136 -154 356 -154q117 0 209.5 39.5t160.5 112.5h-1q67 78 102.5 186.5t35.5 245.5q0 136 -32.5 241.5t-100.5 180.5q-67 75 -156.5 112.5t-205.5 37.5z" />
    <glyph glyph-name="P" unicode="P" horiz-adv-x="884" 
d="M214 543v-543h-169v1434h366q226 0 347 -106.5t121 -312.5t-135 -338q-69 -66 -160.5 -100t-212.5 -34h-157zM214 1271v-564h155q166 0 251 77.5t85 219.5q0 267 -311 267h-180z" />
    <glyph glyph-name="Q" unicode="Q" horiz-adv-x="1423" 
d="M855 -294q-237 0 -254 275q-125 12 -227.5 62.5t-183.5 143.5h1q-87 99 -130 226.5t-43 288.5q0 168 48 305.5t136 240.5q94 100 222.5 154.5t286.5 54.5q146 0 263.5 -49.5t207.5 -152.5q91 -100 136.5 -228t45.5 -289q0 -172 -46.5 -311t-132.5 -239
q-83 -89 -189 -142.5t-231 -65.5q4 -66 27.5 -92t73.5 -26q45 0 110 41l53 -146q-54 -25 -98 -38t-76 -13zM694 1295q-218 0 -362 -159q-70 -79 -106 -184.5t-36 -238.5q0 -263 136 -420q68 -77 156 -115.5t201 -38.5q55 0 107 11t99 31t88.5 47.5t74.5 60.5
q65 78 101 188.5t36 245.5q0 136 -32.5 241.5t-100.5 180.5q-67 75 -156 112.5t-206 37.5z" />
    <glyph glyph-name="R" unicode="R" horiz-adv-x="968" 
d="M755 0l-341 605h-199v-605h-171v1434h415q194 0 310 -108q113 -107 113 -284q0 -81 -23 -148.5t-70 -121.5q-42 -47 -90.5 -77.5t-116.5 -49.5l22 -37.5l22 -38.5l47.5 -86l49.5 -88l64 -111.5l66 -114.5q11 -21 24 -43l25.5 -44.5l24.5 -43l22 -38.5h-194zM215 1271
v-505h195q138 0 221 72v-1q78 70 78 197q0 112 -71.5 174.5t-208.5 62.5h-214z" />
    <glyph glyph-name="S" unicode="S" horiz-adv-x="851" 
d="M343 -22q-93 4 -181 39.5t-170 100.5l107 132q69 -56 133.5 -83t124.5 -27q140 -1 213 55t73 156q0 42 -12 77.5t-34 61.5h1q-28 29 -87 71t-144 91q-214 128 -273 212q-63 91 -63 210q0 162 125 272v-1q126 112 323 112q94 -4 182 -40t170 -101l-106 -131
q-69 56 -133.5 83t-124.5 27q-123 0 -193 -61q-68 -60 -68 -149q0 -42 12 -78t33 -61h-1q14 -13 37.5 -31.5t54 -39.5l66 -44t73.5 -45q91 -52 160.5 -106t103.5 -97q71 -89 71 -215q0 -173 -121 -282q-60 -55 -146.5 -82t-204.5 -26h-1z" />
    <glyph glyph-name="T" unicode="T" horiz-adv-x="946" 
d="M546 1271v-1271h-171v1271h-392v163h953v-163h-390z" />
    <glyph glyph-name="U" unicode="U" horiz-adv-x="1125" 
d="M1056 581q0 -605 -521 -605q-498 0 -498 584v874h171v-861q0 -434 345 -434q333 0 333 421v874h170v-853z" />
    <glyph glyph-name="V" unicode="V" horiz-adv-x="1205" 
d="M633 0h-121l-527 1434h186l405 -1126q2 2 2.5 5.5t1.5 5.5l105.5 275.5l107.5 282l108 282l105 275.5h183z" />
    <glyph glyph-name="W" unicode="W" horiz-adv-x="1820" 
d="M1337 0h-139l-300 1024l-55 -170.5l-54 -172.5l-10 -32l-10 -32h1l-83 -261.5l-81 -259.5l-15 -48.5l-15 -47.5h-137l-426 1434h188l312 -1099l27 87l27 88l43.5 141l44.5 143l29 94.5l32.5 104.5l32 105l28.5 95l18.5 60l19.5 63.5l19 61.5l17 56h108l310 -1099
l42 150.5l41 150.5l28.5 103l28.5 103l82.5 298l80.5 294h185z" />
    <glyph glyph-name="X" unicode="X" horiz-adv-x="1126" 
d="M893 0l-323 536l1 -1q-6 8 -10 14.5t-11 20.5q-3 -5 -6.5 -10t-6.5 -10q-2 -3 -3.5 -4.5t-2.5 -3.5t-2 -2l-60 -98l-60 -99q-11 -17 -21 -34.5l-21 -35.5l-38.5 -62.5l-38.5 -62.5l-46 -74.5l-45 -73.5h-202l451 722l-102 168l-105 175l-25 42l-33.5 56.5l-33.5 56.5
t-25 41l-25.5 42l-26.5 44q-11 20 -26.5 45.5l-24.5 41.5h204l314 -530q4 -6 8.5 -14l9.5 -17q5 8 9 15.5t9 14.5l156.5 265.5l156.5 265.5h201l-430 -709l168 -278l173 -284l50 -83l49 -80h-206z" />
    <glyph glyph-name="Y" unicode="Y" horiz-adv-x="1042" 
d="M581 543v-543h-169v543l-42 85.5l-43 85.5l-63.5 128.5l-63.5 129.5l-56.5 114l-59 120l-58 118.5l-53.5 109.5h190l328 -677v1q3 -5 5.5 -10.5t6.5 -13.5l4.5 11t5.5 11l89.5 177.5l92.5 181.5v-1l28.5 58.5l30.5 60.5l53.5 104l49.5 97h188z" />
    <glyph glyph-name="Z" unicode="Z" horiz-adv-x="1064" 
d="M247 162h778v-162h-1029v79l787 1192h-722v163h977v-76z" />
    <glyph glyph-name="bracketleft" unicode="[" horiz-adv-x="390" 
d="M35 -302v1706h370v-154h-208v-1398h208v-154h-370z" />
    <glyph glyph-name="backslash" unicode="\" horiz-adv-x="797" 
d="M640 -221l-679 1625h172l673 -1625h-166z" />
    <glyph glyph-name="bracketright" unicode="]" horiz-adv-x="393" 
d="M-30 -302v154h208v1398h-208v154h370v-1706h-370z" />
    <glyph glyph-name="asciicircum" unicode="^" horiz-adv-x="861" 
d="M678 650l-263 523l-28.5 -57.5l-29.5 -58.5l-17.5 -34l-17.5 -34v1l-61 -122l-57 -111l-54 -107h-175l398 776h83l397 -776h-175z" />
    <glyph glyph-name="underscore" unicode="_" horiz-adv-x="993" 
d="M46 -248v159h863v-159h-863z" />
    <glyph glyph-name="grave" unicode="`" horiz-adv-x="359" 
d="M225 1100l-286 380h191l271 -380h-176z" />
    <glyph glyph-name="a" unicode="a" horiz-adv-x="875" 
d="M458 1048q166 0 255 -101t89 -293v-654h-160v132q-16 -26 -46.5 -54t-70 -50.5t-84.5 -37t-90 -14.5q-72 0 -133 23.5t-106 65.5q-90 88 -90 221q8 84 43.5 147.5t89.5 106.5t122.5 64.5t143.5 21.5q27 0 58 -9.5t61 -24.5t56.5 -34.5t44.5 -39.5v136q-5 52 -19.5 96
t-39 76t-58 50t-75.5 18q-155 -2 -293 -128l-105 109q85 88 185 131t222 42zM187 286q0 -71 45 -112q44 -44 129 -44q58 0 109.5 17t88.5 44q30 26 53 51.5t29 42.5l-1 -3v129q-54 35 -108 51t-105 16q-50 0 -94 -14t-76.5 -39.5t-51 -61t-18.5 -77.5z" />
    <glyph glyph-name="b" unicode="b" horiz-adv-x="979" 
d="M488 -24q-83 0 -155 30.5t-125 84.5v-92l-160 7l-1 1474h161v-580q67 70 146.5 105.5t171.5 42.5q98 0 178 -37.5t136 -103.5q51 -66 80 -157.5t29 -203.5q0 -253 -124 -409q-130 -161 -337 -161zM208 297q26 -35 54.5 -65t63 -52.5t76 -36t93.5 -13.5q60 0 114 32t92 78
q37 56 60.5 135t23.5 169q0 81 -20 147t-56 113q-34 41 -83.5 64t-105.5 26q-43 -6 -85.5 -19.5t-83 -36t-77 -53t-66.5 -69.5v-419z" />
    <glyph glyph-name="c" unicode="c" horiz-adv-x="882" 
d="M842 89q-99 -55 -186 -84t-166 -29q-209 0 -343 146q-62 72 -94 164.5t-32 208.5q0 118 38.5 220t105.5 177q72 75 165.5 115.5t204.5 40.5q152 2 312 -104l-93 -126q-125 76 -232 76q-75 0 -134 -27.5t-107 -81.5q-49 -56 -72 -126.5t-23 -158.5q0 -85 20.5 -152.5
t65.5 -118.5q42 -49 96.5 -74t125.5 -25q128 0 256 92z" />
    <glyph glyph-name="d" unicode="d" horiz-adv-x="979" 
d="M735 -1v94q-55 -59 -124 -88t-157 -29q-102 0 -187 41.5t-149 119.5q-58 77 -91.5 182t-33.5 227q0 112 28.5 203.5t79.5 157.5q57 67 137 104t176 37q64 0 113.5 -11.5t88 -30.5t67.5 -44t52 -52v570h161l-1 -1474zM735 716q-61 79 -143 122.5t-170 55.5
q-55 -3 -105 -26t-83 -64q-36 -47 -56 -113t-20 -147q0 -90 23 -169t60 -135q19 -23 42.5 -43t50 -35t55 -23.5t58.5 -8.5q52 0 93.5 13.5t76 36t63 52.5t55.5 65v419z" />
    <glyph glyph-name="e" unicode="e" horiz-adv-x="951" 
d="M191 471q5 -75 25 -138.5t55 -105.5q38 -48 94 -72.5t126 -24.5q74 0 146.5 30t147.5 90l81 -131q-100 -72 -197 -107.5t-197 -35.5q-199 0 -324 146q-61 71 -91.5 168.5t-30.5 227.5q0 110 32 204t94 169q65 74 151 115.5t186 41.5q193 0 301 -141q102 -132 102 -361
v-75h-701zM724 624q-11 128 -73 199t-166 71q-58 0 -107.5 -20.5t-87.5 -58.5q-32 -34 -54.5 -82.5t-34.5 -108.5h523z" />
    <glyph glyph-name="f" unicode="f" horiz-adv-x="635" 
d="M575 1294q-30 23 -60 35t-59 12q-137 0 -137 -198v-119h251v-153h-251v-871h-161v871h-171v153h171v127q0 80 22 144.5t64 109.5q44 43 98.5 66.5t117.5 23.5q69 0 185 -57z" />
    <glyph glyph-name="g" unicode="g" horiz-adv-x="996" 
d="M918 108q0 -139 -32.5 -245t-95.5 -173q-63 -63 -163 -99t-226 -36q-73 0 -158 23.5t-187 74.5l110 130q112 -75 236 -75q354 0 354 377v10q-60 -66 -134.5 -92.5t-171.5 -26.5q-193 0 -316 141q-59 69 -89.5 162.5t-30.5 215.5q0 118 34 219t95 176q65 76 153 117
t191 41q79 0 148 -28.5t121 -74.5v79h162v-916zM756 735q-120 159 -267 159q-137 0 -221 -104q-89 -109 -89 -288q0 -178 80 -278q37 -46 87.5 -70t114.5 -24q189 1 295 175v430z" />
    <glyph glyph-name="h" unicode="h" horiz-adv-x="880" 
d="M690 0v606q0 150 -52 219t-163 69q-151 1 -269 -201v-693h-161v1480h161v-551q58 63 129 91t163 28q85 0 151 -28t111 -82t68 -132.5t23 -179.5v-626h-161z" />
    <glyph glyph-name="i" unicode="i" horiz-adv-x="204" 
d="M96 1187q-21 0 -40.5 8t-34.5 23t-24 35t-9 44t9 43.5t24 33.5t34.5 22t40.5 8q22 0 42 -7.5t35 -22t24 -34t9 -43.5q0 -47 -31.5 -78.5t-78.5 -31.5zM17 0v1024h161v-1024h-161z" />
    <glyph glyph-name="j" unicode="j" horiz-adv-x="580" 
d="M437 1187q-21 0 -41 8t-35 23t-24 35t-9 44t9.5 43.5t24.5 33.5t34.5 22t40.5 8q22 0 42 -7.5t35 -22t24 -34t9 -43.5q0 -47 -31.5 -78.5t-78.5 -31.5zM518 65q0 -510 -372 -510q-71 0 -174 47v179q62 -35 108 -54t75 -19q202 0 202 341v975h161v-959z" />
    <glyph glyph-name="k" unicode="k" horiz-adv-x="792" 
d="M609 0l-404 417v-417h-162v1480h162v-855l18.5 20l18.5 20q13 15 26.5 29l27.5 28l70 72.5l70 73.5l76.5 78.5l74.5 77.5h215l-488 -497l127 -127.5l137.5 -138l136.5 -137l124 -124.5h-230z" />
    <glyph glyph-name="l" unicode="l" horiz-adv-x="431" 
d="M197 282q0 -78 22 -113t76 -35q43 0 152 62v-169q-50 -24 -90.5 -35t-72.5 -11q-248 0 -248 291v1208h161v-1198z" />
    <glyph glyph-name="m" unicode="m" horiz-adv-x="1515" 
d="M1244 0v608q0 166 -49 228q-22 29 -58.5 43.5t-86.5 14.5q-92 0 -165 -85q-74 -86 -74 -216v-593h-161v615q0 137 -51 206t-148 73q-34 -6 -67.5 -19.5t-64.5 -34t-57.5 -48.5t-45.5 -63v-729h-161v1024h161v-87q112 112 256 111q57 0 108 -18.5t93 -50.5
q23 -22 44.5 -46t36.5 -51q23 32 47 56t53 45q48 32 98 48.5t104 16.5q350 0 350 -424v-624h-162z" />
    <glyph glyph-name="n" unicode="n" horiz-adv-x="924" 
d="M206 0h-161v1024h161v-88q118 113 290 112q172 0 263.5 -112t91.5 -321v-615h-161v589q0 72 -14.5 127.5t-41.5 93.5t-65 59t-85 25q-87 -12 -162 -53t-116 -112v-729z" />
    <glyph glyph-name="o" unicode="o" horiz-adv-x="1072" 
d="M516 -24q-112 0 -202 37.5t-156 112.5q-129 147 -129 380q0 124 35.5 223.5t101.5 172.5q68 69 160 107.5t200 38.5q111 0 197 -37t151 -109q64 -73 96 -169.5t32 -222.5q0 -117 -33.5 -213t-96.5 -170q-63 -73 -154 -112t-202 -39zM523 894q-151 0 -240 -101
q-89 -99 -89 -289q0 -171 89 -273h-1q89 -101 237 -101q76 0 134 25.5t100 73.5v-1q41 50 62.5 121.5t21.5 162.5q0 186 -81 284t-233 98z" />
    <glyph glyph-name="p" unicode="p" horiz-adv-x="979" 
d="M208 -435h-161v1459h161v-109q30 34 63 58.5t72 40t85 23.5t100 11q97 0 176.5 -37.5t135.5 -103.5q51 -66 80 -157.5t29 -203.5q0 -124 -32.5 -227.5t-90.5 -180.5q-64 -77 -149.5 -119.5t-188.5 -42.5q-88 -2 -157 29t-123 88v-528zM208 309q111 -177 287 -179
q60 0 114 32t92 78q37 56 60.5 135t23.5 169q0 81 -20 147t-56 113q-35 40 -84 64t-104 26q-45 -6 -91 -18.5t-88 -34t-77 -53t-57 -75.5v-404z" />
    <glyph glyph-name="q" unicode="q" horiz-adv-x="980" 
d="M736 94q-55 -57 -124 -88.5t-158 -29.5q-208 1 -337 162q-123 158 -123 408q0 112 28.5 203.5t79.5 157.5q57 67 137 104t176 37q108 -5 185 -35t136 -99v110h161v-1459h-161v529zM736 712q-24 46 -58.5 78t-75.5 53.5t-87.5 33.5t-92.5 17q-54 -2 -103.5 -26.5
t-84.5 -63.5q-75 -98 -75 -260q0 -90 23 -169t60 -135q19 -23 42.5 -43t50 -35t55 -23.5t58.5 -8.5q174 2 288 179v403z" />
    <glyph glyph-name="r" unicode="r" horiz-adv-x="555" 
d="M562 823q-91 67 -137 67q-140 4 -227 -160v-730h-159v1024h159v-80q52 50 110 75.5t123 23.5q29 0 62 -7t69 -24v-189z" />
    <glyph glyph-name="s" unicode="s" horiz-adv-x="738" 
d="M83 244q83 -72 141 -93v1q30 -9 58 -15.5t48 -6.5q185 0 185 146q0 48 -43.5 85t-141.5 78q-147 65 -206 132q-31 36 -47.5 81.5t-16.5 97.5q0 134 102 218q101 80 243 80q67 0 139 -24t151 -72l-63 -145q-66 44 -125.5 65.5t-110.5 21.5q-77 0 -127 -41h1
q-45 -39 -45 -97q0 -24 8 -46.5t21 -39.5q18 -17 56 -40t89 -45q153 -71 214 -133q67 -67 67 -176q0 -132 -98 -217q-47 -41 -111.5 -62t-147.5 -21q-76 0 -153.5 30t-161.5 90z" />
    <glyph glyph-name="t" unicode="t" horiz-adv-x="570" 
d="M574 31q-106 -50 -172 -50q-247 0 -247 291v599h-171v153h171v276h161v-276h250v-153h-250v-589q0 -78 21.5 -113t76.5 -35q40 0 109 42z" />
    <glyph glyph-name="u" unicode="u" horiz-adv-x="923" 
d="M683 0v99q-62 -65 -130.5 -95.5t-141.5 -27.5q-373 0 -373 461v587h161v-565q0 -172 54.5 -250.5t170.5 -78.5q78 -1 141.5 44t117.5 133v717h161v-1024h-161z" />
    <glyph glyph-name="v" unicode="v" horiz-adv-x="938" 
d="M512 0h-131l-393 1024h174l289 -767l70.5 187l71.5 187l76 196.5l75 196.5h176z" />
    <glyph glyph-name="w" unicode="w" horiz-adv-x="1402" 
d="M1019 0h-140l-198 680l-109.5 -340l-109.5 -340h-139l-309 1024h177l211 -726l44.5 141l44.5 143l70.5 222.5l69.5 219.5h117l205 -715l55 184.5l54 183.5l51.5 172.5l51.5 174.5h171z" />
    <glyph glyph-name="x" unicode="x" horiz-adv-x="904" 
d="M528 501l31.5 -47.5t32.5 -48.5l44.5 -66.5l44.5 -66.5l63 -94.5l65 -96.5q6 -8 13.5 -19l15.5 -22.5t14.5 -22t11.5 -17.5h-201l-232 368q-2 -4 -4 -7t-4 -5l2 6q0 1 -1 -2t-3 -8l-12 -15l-51.5 -80.5l-53.5 -81.5l-46 -71l-46 -71h1q-5 -7 -11 -16.5t-10 -16.5h-196
l343 501q-8 11 -15.5 22.5t-15.5 22.5h1l-98.5 157.5l-101.5 158.5l-27.5 42l-29.5 44q-10 17 -25 39.5t-23 36.5h190l222 -358l9.5 -16.5t9.5 -13.5l8 12t8 13l234 363h191z" />
    <glyph glyph-name="y" unicode="y" horiz-adv-x="950" 
d="M462 -171q-29 -69 -60 -120.5t-68 -85.5t-82 -51t-102 -17q-26 0 -56.5 7.5t-66.5 20.5l53 165q22 -17 39.5 -24.5t34.5 -7.5q44 0 80 34t65 100l40.5 96.5l40.5 97.5l-31 83t-32 83l-58.5 154l-57.5 154v-1l-48 125l-50 131l-49.5 130l-45.5 121h173l287 -771
l150.5 385.5l150.5 385.5h176z" />
    <glyph glyph-name="z" unicode="z" horiz-adv-x="895" 
d="M257 153h575v-153h-827v83l592 788h-547v153h806v-74z" />
    <glyph glyph-name="braceleft" unicode="{" horiz-adv-x="449" 
d="M435 -303q-77 4 -135.5 22t-98 55t-59.5 94t-20 138v275q0 92 -36 144t-110 61v129q146 21 146 190v291q0 80 20 137t59.5 94t98 56t135.5 22v-153q-50 -2 -80.5 -12.5t-42.5 -26.5v1q-26 -38 -26 -145v-272q0 -175 -93 -250q44 -38 68.5 -102.5t24.5 -157.5v-255
q0 -50 7 -86.5t19 -56.5q12 -15 43 -25.5t80 -12.5v-154z" />
    <glyph glyph-name="bar" unicode="|" horiz-adv-x="243" 
d="M31 -445v1972h164v-1972h-164z" />
    <glyph glyph-name="braceright" unicode="}" horiz-adv-x="448" 
d="M453 486q-143 -18 -143 -205v-275q0 -81 -20 -138t-59.5 -94t-98 -55t-135.5 -22v153q94 4 119 36q15 19 21.5 55.5t6.5 90.5v255q0 94 25 158.5t71 101.5q-46 37 -71 100t-25 150v272q0 107 -28 146q-14 14 -44 24t-75 12v154q77 -3 135.5 -21.5t98 -55.5t59.5 -94
t20 -138v-291q0 -169 143 -190v-129z" />
    <glyph glyph-name="asciitilde" unicode="~" horiz-adv-x="956" 
d="M889 735q-9 -144 -76.5 -222.5t-179.5 -78.5q-48 0 -102 24t-107 62q-90 69 -140 69q-95 0 -107 -146h-146q3 70 22.5 125.5t52.5 94.5t78.5 59.5t101.5 20.5q48 0 100.5 -22t102.5 -59l55 -41l36 -25q12 -4 26.5 -6.5t30.5 -2.5q88 0 107 148h145z" />
    <glyph glyph-name="Aring" unicode="&#xc5;" horiz-adv-x="1229" 
d="M1021 0l-155 422h-537l-39 -103.5l-40.5 -108l-40 -108l-37.5 -102.5h-184l497 1316q-115 56 -115 189q0 48 17 85t51 69q68 60 161 60q48 0 88 -15.5t73 -43.5q31 -29 49.5 -68.5t18.5 -86.5q0 -130 -115 -186q26 -66 49.5 -132l49.5 -133l69.5 -185.5l69.5 -187.5
q5 -12 9.5 -25t9.5 -26v1l119 -318.5l116 -312.5h-184zM599 1578q-37 0 -59.5 -20t-22.5 -53q0 -31 23.5 -51t58.5 -20q36 0 59.5 20t23.5 51q0 35 -24.5 54t-58.5 19zM577 1218v-3q0 1 -0.5 1.5t-0.5 1.5h1zM577 1218h19q0 8 -0.5 14.5t-2 8t-5 -3.5t-10.5 -18zM632 1276
q-1 -8 -3 -16.5t-4 -14.5l1 1l-4.5 -18.5t-10.5 -30.5l-28 6q-5 5 -5.5 7.5t-0.5 5.5q0 1 -0.5 1.5t-0.5 1.5v-2q-3 8 -5 14t-3 12q-1 2 -1 3t-1 3q-3 8 -6.5 21.5t-8.5 48.5l45 -35q2 2 5.5 4t5.5 4zM617 1210q-1 -3 -2 -6.5t-2 -6.5q-1 -2 -1.5 -4t-2.5 -6.5t-5 -12.5
t-9 -21q-5 14 -8.5 25.5t-3.5 14.5q-1 2 -1 3.5t-1 3.5t-3 11t-3 11h32zM596 1155l-2 6v-1q-1 2 -1 2.5t-1 2.5q-2 3 -5 12l18 -1q-2 -3 -3 -6.5t-3 -6.5v1zM596 1155l-33 -90v1l-37.5 -103.5l-37.5 -101.5l-34.5 -97l-34.5 -96l-14.5 -40.5l-15.5 -42.5h416z" />
    <glyph glyph-name="Udieresis" unicode="&#xdc;" horiz-adv-x="1327" 
d="M1056 581q0 -605 -521 -605q-498 0 -498 584v874h171v-861q0 -434 345 -434q333 0 333 421v874h170v-853zM731 1449q-20 0 -38.5 7.5t-33 21t-23.5 32.5t-9 43q0 23 9 41.5t23 32t32.5 21t37.5 7.5q21 0 40.5 -7.5t34.5 -21t24.5 -32.5t9.5 -41t-8.5 -41t-23 -33t-34 -22
t-41.5 -8zM423 1449q-20 0 -39 7.5t-33.5 21t-23.5 32.5t-9 43q0 23 9 41.5t23 32t32.5 21t38.5 7.5q21 0 40 -7.5t34 -21t24 -32.5t9 -41t-8 -41t-22 -33t-33.5 -22t-41.5 -8z" />
    <glyph glyph-name="aacute" unicode="&#xe1;" horiz-adv-x="1012" 
d="M458 1048q166 0 255 -101t89 -293v-654h-160v132q-16 -26 -46.5 -54t-70 -50.5t-84.5 -37t-90 -14.5q-72 0 -133 23.5t-106 65.5q-90 88 -90 221q8 84 43.5 147.5t89.5 106.5t122.5 64.5t143.5 21.5q27 0 58 -9.5t61 -24.5t56.5 -34.5t44.5 -39.5v136q-5 52 -19.5 96
t-39 76t-58 50t-75.5 18q-155 -2 -293 -128l-105 109q85 88 185 131t222 42zM187 286q0 -71 45 -112q44 -44 129 -44q58 0 109.5 17t88.5 44q30 26 53 51.5t29 42.5l-1 -3v129q-54 35 -108 51t-105 16q-50 0 -94 -14t-76.5 -39.5t-51 -61t-18.5 -77.5zM344 1100h-174
l271 380h191z" />
    <glyph glyph-name="agrave" unicode="&#xe0;" horiz-adv-x="1012" 
d="M458 1048q166 0 255 -101t89 -293v-654h-160v132q-16 -26 -46.5 -54t-70 -50.5t-84.5 -37t-90 -14.5q-72 0 -133 23.5t-106 65.5q-90 88 -90 221q8 84 43.5 147.5t89.5 106.5t122.5 64.5t143.5 21.5q27 0 58 -9.5t61 -24.5t56.5 -34.5t44.5 -39.5v136q-5 52 -19.5 96
t-39 76t-58 50t-75.5 18q-155 -2 -293 -128l-105 109q85 88 185 131t222 42zM187 286q0 -71 45 -112q44 -44 129 -44q58 0 109.5 17t88.5 44q30 26 53 51.5t29 42.5l-1 -3v129q-54 35 -108 51t-105 16q-50 0 -94 -14t-76.5 -39.5t-51 -61t-18.5 -77.5zM420 1100l-286 380
h191l271 -380h-176z" />
    <glyph glyph-name="acircumflex" unicode="&#xe2;" horiz-adv-x="1012" 
d="M458 1048q166 0 255 -101t89 -293v-654h-160v132q-16 -26 -46.5 -54t-70 -50.5t-84.5 -37t-90 -14.5q-72 0 -133 23.5t-106 65.5q-90 88 -90 221q8 84 43.5 147.5t89.5 106.5t122.5 64.5t143.5 21.5q27 0 58 -9.5t61 -24.5t56.5 -34.5t44.5 -39.5v136q-5 52 -19.5 96
t-39 76t-58 50t-75.5 18q-155 -2 -293 -128l-105 109q85 88 185 131t222 42zM187 286q0 -71 45 -112q44 -44 129 -44q58 0 109.5 17t88.5 44q30 26 53 51.5t29 42.5l-1 -3v129q-54 35 -108 51t-105 16q-50 0 -94 -14t-76.5 -39.5t-51 -61t-18.5 -77.5zM526 1100l-126 192
l-37 -56.5l-37 -57.5l-28 -40.5l-25 -37.5h-166l254 387h83l251 -387h-169z" />
    <glyph glyph-name="adieresis" unicode="&#xe4;" horiz-adv-x="1012" 
d="M458 1048q166 0 255 -101t89 -293v-654h-160v132q-16 -26 -46.5 -54t-70 -50.5t-84.5 -37t-90 -14.5q-72 0 -133 23.5t-106 65.5q-90 88 -90 221q8 84 43.5 147.5t89.5 106.5t122.5 64.5t143.5 21.5q27 0 58 -9.5t61 -24.5t56.5 -34.5t44.5 -39.5v136q-5 52 -19.5 96
t-39 76t-58 50t-75.5 18q-155 -2 -293 -128l-105 109q85 88 185 131t222 42zM187 286q0 -71 45 -112q44 -44 129 -44q58 0 109.5 17t88.5 44q30 26 53 51.5t29 42.5l-1 -3v129q-54 35 -108 51t-105 16q-50 0 -94 -14t-76.5 -39.5t-51 -61t-18.5 -77.5zM536 1100
q-20 0 -38.5 7.5t-33 21t-23.5 32.5t-9 43q0 23 9 41.5t23 32t32.5 21t37.5 7.5q21 0 40.5 -7.5t34.5 -21t24.5 -32.5t9.5 -41t-8.5 -41t-23 -33t-34 -22t-41.5 -8zM228 1100q-20 0 -39 7.5t-33.5 21t-23.5 32.5t-9 43q0 23 9 41.5t23 32t32.5 21t38.5 7.5q21 0 40 -7.5
t34 -21t24 -32.5t9 -41t-8 -41t-22 -33t-33.5 -22t-41.5 -8z" />
    <glyph glyph-name="atilde" unicode="&#xe3;" horiz-adv-x="1012" 
d="M458 1048q166 0 255 -101t89 -293v-654h-160v132q-16 -26 -46.5 -54t-70 -50.5t-84.5 -37t-90 -14.5q-72 0 -133 23.5t-106 65.5q-90 88 -90 221q8 84 43.5 147.5t89.5 106.5t122.5 64.5t143.5 21.5q27 0 58 -9.5t61 -24.5t56.5 -34.5t44.5 -39.5v136q-5 52 -19.5 96
t-39 76t-58 50t-75.5 18q-155 -2 -293 -128l-105 109q85 88 185 131t222 42zM187 286q0 -71 45 -112q44 -44 129 -44q58 0 109.5 17t88.5 44q30 26 53 51.5t29 42.5l-1 -3v129q-54 35 -108 51t-105 16q-50 0 -94 -14t-76.5 -39.5t-51 -61t-18.5 -77.5zM838 1394
q0 -65 -14.5 -117.5t-41 -89.5t-64 -56.5t-84.5 -19.5q-38 0 -80.5 21t-85.5 58q-46 42 -84 42q-57 0 -57 -132h-141q0 72 13.5 124t38.5 84q27 35 64.5 54t83.5 19q78 0 173 -77q51 -46 84 -46q21 0 36 35t15 101h144z" />
    <glyph glyph-name="aring" unicode="&#xe5;" horiz-adv-x="849" 
d="M481 1100q-48 0 -87.5 14t-71.5 40q-65 58 -65 154q0 45 17 83.5t49 67.5q32 30 71 43.5t87 13.5t87 -13.5t71 -43.5q65 -56 65 -151q0 -45 -15.5 -83t-50.5 -69q-33 -27 -71.5 -41.5t-85.5 -14.5zM481 1379q-36 0 -58 -19.5t-22 -51.5t22.5 -51t57.5 -19t58.5 19.5
t23.5 50.5q0 35 -24 53t-58 18zM456 1085q166 0 255 -101t89 -293v-654h-160v132q-16 -26 -46.5 -54t-70 -50.5t-84.5 -37t-90 -14.5q-72 0 -133 23.5t-106 65.5q-90 88 -90 221q8 84 43.5 147.5t89.5 106.5t122.5 64.5t143.5 21.5q27 0 58 -9.5t61 -24.5t56.5 -34.5
t44.5 -39.5v136q-5 52 -19.5 96t-39 76t-58 50t-75.5 18q-155 -2 -293 -128l-105 109q85 88 185 131t222 42zM185 323q0 -71 45 -112q44 -44 129 -44q58 0 109.5 17t88.5 44q30 26 53 51.5t29 42.5l-1 -3v129q-54 35 -108 51t-105 16q-50 0 -94 -14t-76.5 -39.5t-51 -61
t-18.5 -77.5z" />
    <glyph glyph-name="ccedilla" unicode="&#xe7;" horiz-adv-x="909" 
d="M842 89q-99 -55 -186 -84t-166 -29q-209 0 -343 146q-62 72 -94 164.5t-32 208.5q0 118 38.5 220t105.5 177q72 75 165.5 115.5t204.5 40.5q152 2 312 -104l-93 -126q-125 76 -232 76q-75 0 -134 -27.5t-107 -81.5q-49 -56 -72 -126.5t-23 -158.5q0 -85 20.5 -152.5
t65.5 -118.5q42 -49 96.5 -74t125.5 -25q128 0 256 92zM371 -249q42 -6 71.5 -8t44.5 -2q111 0 111 46q0 42 -97 42q-13 0 -36 -2t-61 -6v255h142v-108q110 -5 159.5 -49t49.5 -126q0 -195 -274 -195q-17 0 -44 1.5t-66 6.5v145z" />
    <glyph glyph-name="eacute" unicode="&#xe9;" horiz-adv-x="1034" 
d="M191 471q5 -75 25 -138.5t55 -105.5q38 -48 94 -72.5t126 -24.5q74 0 146.5 30t147.5 90l81 -131q-100 -72 -197 -107.5t-197 -35.5q-199 0 -324 146q-61 71 -91.5 168.5t-30.5 227.5q0 110 32 204t94 169q65 74 151 115.5t186 41.5q193 0 301 -141q102 -132 102 -361
v-75h-701zM724 624q-11 128 -73 199t-166 71q-58 0 -107.5 -20.5t-87.5 -58.5q-32 -34 -54.5 -82.5t-34.5 -108.5h523zM381 1100h-174l271 380h191z" />
    <glyph glyph-name="egrave" unicode="&#xe8;" horiz-adv-x="1034" 
d="M191 471q5 -75 25 -138.5t55 -105.5q38 -48 94 -72.5t126 -24.5q74 0 146.5 30t147.5 90l81 -131q-100 -72 -197 -107.5t-197 -35.5q-199 0 -324 146q-61 71 -91.5 168.5t-30.5 227.5q0 110 32 204t94 169q65 74 151 115.5t186 41.5q193 0 301 -141q102 -132 102 -361
v-75h-701zM724 624q-11 128 -73 199t-166 71q-58 0 -107.5 -20.5t-87.5 -58.5q-32 -34 -54.5 -82.5t-34.5 -108.5h523zM470 1100l-286 380h191l271 -380h-176z" />
    <glyph glyph-name="ecircumflex" unicode="&#xea;" horiz-adv-x="1034" 
d="M191 471q5 -75 25 -138.5t55 -105.5q38 -48 94 -72.5t126 -24.5q74 0 146.5 30t147.5 90l81 -131q-100 -72 -197 -107.5t-197 -35.5q-199 0 -324 146q-61 71 -91.5 168.5t-30.5 227.5q0 110 32 204t94 169q65 74 151 115.5t186 41.5q193 0 301 -141q102 -132 102 -361
v-75h-701zM724 624q-11 128 -73 199t-166 71q-58 0 -107.5 -20.5t-87.5 -58.5q-32 -34 -54.5 -82.5t-34.5 -108.5h523zM560 1100l-126 192l-37 -56.5l-37 -57.5l-28 -40.5l-25 -37.5h-166l254 387h83l251 -387h-169z" />
    <glyph glyph-name="edieresis" unicode="&#xeb;" horiz-adv-x="1034" 
d="M191 471q5 -75 25 -138.5t55 -105.5q38 -48 94 -72.5t126 -24.5q74 0 146.5 30t147.5 90l81 -131q-100 -72 -197 -107.5t-197 -35.5q-199 0 -324 146q-61 71 -91.5 168.5t-30.5 227.5q0 110 32 204t94 169q65 74 151 115.5t186 41.5q193 0 301 -141q102 -132 102 -361
v-75h-701zM724 624q-11 128 -73 199t-166 71q-58 0 -107.5 -20.5t-87.5 -58.5q-32 -34 -54.5 -82.5t-34.5 -108.5h523zM573 1100q-20 0 -38.5 7.5t-33 21t-23.5 32.5t-9 43q0 23 9 41.5t23 32t32.5 21t37.5 7.5q21 0 40.5 -7.5t34.5 -21t24.5 -32.5t9.5 -41t-8.5 -41
t-23 -33t-34 -22t-41.5 -8zM265 1100q-20 0 -39 7.5t-33.5 21t-23.5 32.5t-9 43q0 23 9 41.5t23 32t32.5 21t38.5 7.5q21 0 40 -7.5t34 -21t24 -32.5t9 -41t-8 -41t-22 -33t-33.5 -22t-41.5 -8z" />
    <glyph glyph-name="iacute" unicode="&#xed;" horiz-adv-x="364" 
d="M57 0v1024h161v-1024h-161zM13 1137h-174l271 380h191z" />
    <glyph glyph-name="igrave" unicode="&#xec;" horiz-adv-x="380" 
d="M178 0v1024h161v-1024h-161zM225 1137l-286 380h191l271 -380h-176z" />
    <glyph glyph-name="icircumflex" unicode="&#xee;" horiz-adv-x="509" 
d="M158 0v1024h161v-1024h-161zM282 1137l-126 192l-37 -56.5l-37 -57.5l-28 -40.5l-25 -37.5h-166l254 387h83l251 -387h-169z" />
    <glyph glyph-name="idieresis" unicode="&#xef;" horiz-adv-x="497" 
d="M153 0v1024h161v-1024h-161zM302 1137q-20 0 -38.5 7.5t-33 21t-23.5 32.5t-9 43q0 23 9 41.5t23 32t32.5 21t37.5 7.5q21 0 40.5 -7.5t34.5 -21t24.5 -32.5t9.5 -41t-8.5 -41t-23 -33t-34 -22t-41.5 -8zM-6 1137q-20 0 -39 7.5t-33.5 21t-23.5 32.5t-9 43q0 23 9 41.5
t23 32t32.5 21t38.5 7.5q21 0 40 -7.5t34 -21t24 -32.5t9 -41t-8 -41t-22 -33t-33.5 -22t-41.5 -8z" />
    <glyph glyph-name="ntilde" unicode="&#xf1;" horiz-adv-x="1096" 
d="M206 0h-161v1024h161v-88q118 113 290 112q172 0 263.5 -112t91.5 -321v-615h-161v589q0 72 -14.5 127.5t-41.5 93.5t-65 59t-85 25q-87 -12 -162 -53t-116 -112v-729zM910 1394q0 -65 -14.5 -117.5t-41 -89.5t-64 -56.5t-84.5 -19.5q-38 0 -80.5 21t-85.5 58
q-46 42 -84 42q-57 0 -57 -132h-141q0 72 13.5 124t38.5 84q27 35 64.5 54t83.5 19q78 0 173 -77q51 -46 84 -46q21 0 36 35t15 101h144z" />
    <glyph glyph-name="oacute" unicode="&#xf3;" horiz-adv-x="1149" 
d="M516 -24q-112 0 -202 37.5t-156 112.5q-129 147 -129 380q0 124 35.5 223.5t101.5 172.5q68 69 160 107.5t200 38.5q111 0 197 -37t151 -109q64 -73 96 -169.5t32 -222.5q0 -117 -33.5 -213t-96.5 -170q-63 -73 -154 -112t-202 -39zM523 894q-151 0 -240 -101
q-89 -99 -89 -289q0 -171 89 -273h-1q89 -101 237 -101q76 0 134 25.5t100 73.5v-1q41 50 62.5 121.5t21.5 162.5q0 186 -81 284t-233 98zM433 1100h-174l271 380h191z" />
    <glyph glyph-name="ograve" unicode="&#xf2;" horiz-adv-x="1149" 
d="M516 -24q-112 0 -202 37.5t-156 112.5q-129 147 -129 380q0 124 35.5 223.5t101.5 172.5q68 69 160 107.5t200 38.5q111 0 197 -37t151 -109q64 -73 96 -169.5t32 -222.5q0 -117 -33.5 -213t-96.5 -170q-63 -73 -154 -112t-202 -39zM523 894q-151 0 -240 -101
q-89 -99 -89 -289q0 -171 89 -273h-1q89 -101 237 -101q76 0 134 25.5t100 73.5v-1q41 50 62.5 121.5t21.5 162.5q0 186 -81 284t-233 98zM493 1100l-286 380h191l271 -380h-176z" />
    <glyph glyph-name="ocircumflex" unicode="&#xf4;" horiz-adv-x="1149" 
d="M516 -24q-112 0 -202 37.5t-156 112.5q-129 147 -129 380q0 124 35.5 223.5t101.5 172.5q68 69 160 107.5t200 38.5q111 0 197 -37t151 -109q64 -73 96 -169.5t32 -222.5q0 -117 -33.5 -213t-96.5 -170q-63 -73 -154 -112t-202 -39zM523 894q-151 0 -240 -101
q-89 -99 -89 -289q0 -171 89 -273h-1q89 -101 237 -101q76 0 134 25.5t100 73.5v-1q41 50 62.5 121.5t21.5 162.5q0 186 -81 284t-233 98zM604 1100l-126 192l-37 -56.5l-37 -57.5l-28 -40.5l-25 -37.5h-166l254 387h83l251 -387h-169z" />
    <glyph glyph-name="odieresis" unicode="&#xf6;" horiz-adv-x="1149" 
d="M516 -24q-112 0 -202 37.5t-156 112.5q-129 147 -129 380q0 124 35.5 223.5t101.5 172.5q68 69 160 107.5t200 38.5q111 0 197 -37t151 -109q64 -73 96 -169.5t32 -222.5q0 -117 -33.5 -213t-96.5 -170q-63 -73 -154 -112t-202 -39zM523 894q-151 0 -240 -101
q-89 -99 -89 -289q0 -171 89 -273h-1q89 -101 237 -101q76 0 134 25.5t100 73.5v-1q41 50 62.5 121.5t21.5 162.5q0 186 -81 284t-233 98zM620 1100q-20 0 -38.5 7.5t-33 21t-23.5 32.5t-9 43q0 23 9 41.5t23 32t32.5 21t37.5 7.5q21 0 40.5 -7.5t34.5 -21t24.5 -32.5
t9.5 -41t-8.5 -41t-23 -33t-34 -22t-41.5 -8zM312 1100q-20 0 -39 7.5t-33.5 21t-23.5 32.5t-9 43q0 23 9 41.5t23 32t32.5 21t38.5 7.5q21 0 40 -7.5t34 -21t24 -32.5t9 -41t-8 -41t-22 -33t-33.5 -22t-41.5 -8z" />
    <glyph glyph-name="otilde" unicode="&#xf5;" horiz-adv-x="1149" 
d="M516 -24q-112 0 -202 37.5t-156 112.5q-129 147 -129 380q0 124 35.5 223.5t101.5 172.5q68 69 160 107.5t200 38.5q111 0 197 -37t151 -109q64 -73 96 -169.5t32 -222.5q0 -117 -33.5 -213t-96.5 -170q-63 -73 -154 -112t-202 -39zM523 894q-151 0 -240 -101
q-89 -99 -89 -289q0 -171 89 -273h-1q89 -101 237 -101q76 0 134 25.5t100 73.5v-1q41 50 62.5 121.5t21.5 162.5q0 186 -81 284t-233 98zM925 1394q0 -65 -14.5 -117.5t-41 -89.5t-64 -56.5t-84.5 -19.5q-38 0 -80.5 21t-85.5 58q-46 42 -84 42q-57 0 -57 -132h-141
q0 72 13.5 124t38.5 84q27 35 64.5 54t83.5 19q78 0 173 -77q51 -46 84 -46q21 0 36 35t15 101h144z" />
    <glyph glyph-name="uacute" unicode="&#xfa;" horiz-adv-x="1096" 
d="M683 0v99q-62 -65 -130.5 -95.5t-141.5 -27.5q-373 0 -373 461v587h161v-565q0 -172 54.5 -250.5t170.5 -78.5q78 -1 141.5 44t117.5 133v717h161v-1024h-161zM435 1100h-174l271 380h191z" />
    <glyph glyph-name="ugrave" unicode="&#xf9;" horiz-adv-x="1096" 
d="M683 0v99q-62 -65 -130.5 -95.5t-141.5 -27.5q-373 0 -373 461v587h161v-565q0 -172 54.5 -250.5t170.5 -78.5q78 -1 141.5 44t117.5 133v717h161v-1024h-161zM459 1100l-286 380h191l271 -380h-176z" />
    <glyph glyph-name="ucircumflex" unicode="&#xfb;" horiz-adv-x="1096" 
d="M683 0v99q-62 -65 -130.5 -95.5t-141.5 -27.5q-373 0 -373 461v587h161v-565q0 -172 54.5 -250.5t170.5 -78.5q78 -1 141.5 44t117.5 133v717h161v-1024h-161zM582 1100l-126 192l-37 -56.5l-37 -57.5l-28 -40.5l-25 -37.5h-166l254 387h83l251 -387h-169z" />
    <glyph glyph-name="udieresis" unicode="&#xfc;" horiz-adv-x="1096" 
d="M683 0v99q-62 -65 -130.5 -95.5t-141.5 -27.5q-373 0 -373 461v587h161v-565q0 -172 54.5 -250.5t170.5 -78.5q78 -1 141.5 44t117.5 133v717h161v-1024h-161zM606 1100q-20 0 -38.5 7.5t-33 21t-23.5 32.5t-9 43q0 23 9 41.5t23 32t32.5 21t37.5 7.5q21 0 40.5 -7.5
t34.5 -21t24.5 -32.5t9.5 -41t-8.5 -41t-23 -33t-34 -22t-41.5 -8zM298 1100q-20 0 -39 7.5t-33.5 21t-23.5 32.5t-9 43q0 23 9 41.5t23 32t32.5 21t38.5 7.5q21 0 40 -7.5t34 -21t24 -32.5t9 -41t-8 -41t-22 -33t-33.5 -22t-41.5 -8z" />
    <glyph glyph-name="dagger" unicode="&#x2020;" horiz-adv-x="670" 
d="M665 860l-255 27q-4 -78 -6.5 -157t-5.5 -160q-2 -41 -3.5 -82t-2.5 -83l-4 -98t-4 -95h-106l-29 674l-45.5 -4l-46.5 -4t-49 -5t-51 -5q-18 -2 -41 -4t-37 -4v185l285 -21q-3 44 -7 93t-7.5 98.5t-7.5 97.5t-7 90h190l-27 -377q7 1 12.5 1t13.5 1t17 1t17 1q24 2 51.5 4
l55 4l53.5 4t47 3v-185z" />
    <glyph glyph-name="degree" unicode="&#xb0;" horiz-adv-x="602" 
d="M291 861q-112 0 -191 81q-82 82 -82 193q0 109 80 189t189 80q115 0 193 -80q81 -79 81 -189q0 -57 -20.5 -105t-60.5 -89q-77 -80 -189 -80zM291 1257q-24 0 -46.5 -8.5t-39.5 -27.5q-34 -34 -34 -86q0 -26 8 -48.5t26 -41.5q17 -20 38 -29t44 -9q49 0 83 38
q38 38 38 90t-34 88q-34 34 -83 34z" />
    <glyph glyph-name="cent" unicode="&#xa2;" horiz-adv-x="814" 
d="M789 223q-63 -37 -120.5 -59t-115.5 -30v-187h-161v187q-171 27 -277 156q-115 140 -115 356q0 105 29.5 196.5t83.5 163.5q52 69 121.5 115t157.5 65v191h161v-178q51 -5 111 -25t129 -51l-48 -162q-111 69 -192 81v-754q48 8 92.5 32.5t95.5 63.5zM392 1027
q-47 -17 -86.5 -47t-69.5 -68q-33 -51 -52.5 -118t-19.5 -142q0 -72 20 -139t52 -117q30 -34 71 -62t85 -42v735z" />
    <glyph glyph-name="sterling" unicode="&#xa3;" horiz-adv-x="905" 
d="M2 0v142q231 97 231 313v158h-211v159h211v230q0 191 100 305q103 119 273 119q48 0 100 -11.5t106 -32.5v-175q-129 65 -210 65q-99 0 -153.5 -71.5t-54.5 -208.5v-220h284v-159h-284v-127q0 -59 -5 -107.5t-18 -89t-35 -74t-56 -62.5h602v-153h-880z" />
    <glyph glyph-name="section" unicode="&#xa7;" horiz-adv-x="676" 
d="M648 673q0 -73 -32 -139.5t-92 -123.5q37 -37 53.5 -81t16.5 -102q0 -122 -95 -208q-46 -39 -106 -60t-135 -21q-104 0 -238 61v180q159 -86 240 -86q82 0 125 36t43 96q0 35 -25 73q-11 18 -41 38.5t-71 41.5q-81 40 -141 81t-85 79q-26 40 -40 86t-14 97q0 154 122 241
q-38 40 -62.5 91t-24.5 107q0 132 89 215q87 81 236 81q55 0 108.5 -11t110.5 -37v-180q-65 38 -120.5 56.5t-100.5 18.5q-158 0 -158 -137q0 -53 39 -94q26 -23 72 -50t116 -57q210 -97 210 -292zM289 916v-35q-5 -2 -9 -4t-9 -2t-20.5 9t-49.5 32h88zM448 768
q-18 20 -62.5 46.5t-113.5 58.5q-51 -25 -73.5 -61.5t-22.5 -85.5q0 -73 43 -118q22 -22 66 -49t110 -56q24 20 39.5 37t26.5 35l-1 -1q24 38 24 99q0 56 -36 95z" />
    <glyph glyph-name="bullet" unicode="&#x2022;" horiz-adv-x="581" 
d="M281 441q-106 0 -186 77q-78 78 -78 179q0 54 20 100t58 85q80 77 186 77q108 0 185 -76q75 -78 75 -186q0 -106 -75 -180q-39 -38 -84.5 -57t-100.5 -19z" />
    <glyph glyph-name="paragraph" unicode="&#xb6;" horiz-adv-x="823" 
d="M656 1248v-1248h-155v1248h-108v-1248h-156v837q-47 6 -84.5 26.5t-69.5 54.5q-39 42 -57.5 91t-18.5 109q0 130 80 207q82 79 194 79h497v-156h-122z" />
    <glyph glyph-name="germandbls" unicode="&#xdf;" horiz-adv-x="920" 
d="M288 174q53 -20 95.5 -32t73.5 -12q115 0 179 70q67 70 67 190q0 64 -26 118t-75 96t-121 71.5t-163 44.5v136q284 64 284 279q0 96 -49.5 151t-138.5 55q-101 0 -156 -74t-55 -209v-1056h-161v1069q0 98 27 175.5t76 134.5q51 55 120 84.5t157 29.5q77 0 139 -24.5
t110 -72.5q96 -96 96 -251q0 -225 -183 -343q54 -23 102 -58t82 -76q49 -59 75 -126.5t26 -147.5q0 -178 -114 -301q-59 -59 -131.5 -89t-163.5 -30q-35 0 -77.5 7t-94.5 20v171z" />
    <glyph glyph-name="uni00AD" unicode="&#xad;" horiz-adv-x="690" 
d="M40 514v159h582v-159h-582z" />
    <glyph glyph-name="registered" unicode="&#xae;" horiz-adv-x="1591" 
d="M767 -24q-302 0 -517 212q-213 213 -213 511q0 152 52.5 280t161.5 234q216 213 514 213q151 0 278.5 -53t236.5 -160q214 -210 214 -512q0 -299 -213 -512q-215 -213 -514 -213zM765 1280q-118 0 -220.5 -42.5t-187.5 -128.5q-171 -170 -171 -410q0 -56 12.5 -111
t35 -107t53.5 -100t69 -89q83 -77 189 -122.5t220 -45.5q120 0 222.5 41.5t187.5 127.5q170 172 170 406q0 239 -171 410q-170 171 -409 171zM977 225l-242 396h-100v-396h-161v970h283q81 0 143.5 -19t106.5 -54q47 -38 71 -88.5t24 -112.5q0 -102 -57 -172t-155 -103
l44 -66.5l45 -68.5v1l18 -27.5l18 -27.5l38 -58.5l40 -62l39 -59.5l34 -52h-189zM635 1052v-290h142q36 0 66 10.5t52 29.5v-1q21 22 32 47.5t11 57.5q0 146 -183 146h-120z" />
    <glyph glyph-name="copyright" unicode="&#xa9;" horiz-adv-x="1591" 
d="M767 -24q-302 0 -517 212q-213 213 -213 511q0 152 52.5 280t161.5 234q216 213 514 213q151 0 278.5 -53t236.5 -160q214 -210 214 -512q0 -299 -213 -512q-215 -213 -514 -213zM765 1280q-118 0 -220.5 -42.5t-187.5 -128.5q-171 -170 -171 -410q0 -56 12.5 -111
t35 -107t53.5 -100t69 -89q83 -77 189 -122.5t220 -45.5q120 0 222.5 41.5t187.5 127.5q170 172 170 406q0 239 -171 410q-170 171 -409 171zM1109 283q-93 -49 -171.5 -74t-144.5 -25q-209 0 -353 143q-144 141 -144 350q0 244 146 387q145 145 366 145q64 0 137 -19
t157 -61l-66 -139q-123 68 -243 68q-71 0 -131 -24t-108 -74q-97 -96 -97 -264q0 -163 101 -260q50 -50 111.5 -74t133.5 -24q107 0 236 79z" />
    <glyph glyph-name="trademark" unicode="&#x2122;" horiz-adv-x="1424" 
d="M1164 715v347l-51.5 -118.5l-51.5 -117.5l-24.5 -55.5l-23.5 -55.5h-113l-141 341v-341h-151v689h169l184 -449l29.5 70.5l31.5 70.5q14 35 30.5 71.5t30.5 71.5l37 84l35 81h162v-689h-153zM387 1255v-540h-151v540h-205v149h563v-149h-207z" />
    <glyph glyph-name="acute" unicode="&#xb4;" horiz-adv-x="359" 
d="M119 1100h-174l271 380h191z" />
    <glyph glyph-name="dieresis" unicode="&#xa8;" horiz-adv-x="608" 
d="M446 1100q-20 0 -38.5 7.5t-33 21t-23.5 32.5t-9 43q0 23 9 41.5t23 32t32.5 21t37.5 7.5q21 0 40.5 -7.5t34.5 -21t24.5 -32.5t9.5 -41t-8.5 -41t-23 -33t-34 -22t-41.5 -8zM138 1100q-20 0 -39 7.5t-33.5 21t-23.5 32.5t-9 43q0 23 9 41.5t23 32t32.5 21t38.5 7.5
q21 0 40 -7.5t34 -21t24 -32.5t9 -41t-8 -41t-22 -33t-33.5 -22t-41.5 -8z" />
    <glyph glyph-name="Oslash" unicode="&#xd8;" horiz-adv-x="1470" 
d="M131 -67l-118 98l174 206q-66 97 -100.5 213.5t-34.5 251.5q0 172 46.5 307.5t140.5 239.5q187 208 508 208q107 0 200 -28.5t170 -81.5l33.5 39l33.5 40q7 8 14 17t15 17h-1l21 23.5t18 21.5l120 -100l-137 -161q81 -98 122.5 -224.5t41.5 -281.5q0 -348 -184 -557
q-187 -205 -493 -205q-131 0 -236 35t-193 110zM1011 1217q-60 41 -127.5 59.5t-152.5 18.5q-112 0 -201.5 -40t-161.5 -119q-72 -80 -106.5 -185.5t-34.5 -237.5q0 -202 77 -338zM401 251q62 -54 143 -83t175 -29q55 0 107 11t99 31t88.5 47.5t74.5 60.5q64 78 101 188.5
t37 245.5q0 117 -27.5 215t-78.5 172z" />
    <glyph glyph-name="plusminus" unicode="&#xb1;" horiz-adv-x="919" 
d="M519 586v-381h-153v381h-381v155h381v379h153v-379h382v-155h-382zM-15 0v153h916v-153h-916z" />
    <glyph glyph-name="yen" unicode="&#xa5;" horiz-adv-x="960" 
d="M594 765h292v-152h-345v-152h345v-153h-345v-308h-161v308h-344v153h344v152h-344v152h289l-116.5 212l-117.5 216l-43.5 79l-43.5 80l-14.5 26l-14.5 26h183l295 -550l5 -9l4 -7q4 10 11 20l41.5 75.5l42.5 77.5l31.5 58t30.5 57l76.5 140l75.5 138h178z" />
    <glyph glyph-name="uni00B5" unicode="&#xb5;" horiz-adv-x="887" 
d="M690 0v91q-106 -115 -273 -115q-127 0 -211 66v-404h-161v1386h161v-565q0 -174 55 -251.5t171 -77.5q114 0 184 84q74 87 74 235v575h161v-1024h-161z" />
    <glyph glyph-name="ordfeminine" unicode="&#xaa;" horiz-adv-x="685" 
d="M464 664v61q-43 -36 -95 -56.5t-106 -20.5q-57 0 -101 17t-77 49q-66 65 -66 160q0 50 16 105.5t51 102t90.5 76.5t133.5 30q32 0 69.5 -6.5t79.5 -21.5q-11 53 -38.5 82.5t-72.5 29.5q-111 0 -272 -122v186q74 45 143.5 65.5t135.5 20.5q268 0 268 -291v-467h-159z
M180 875q0 -35 25.5 -56t74.5 -21q34 0 81 30t103 87v115q-67 31 -125 31q-32 0 -60 -11t-49 -34t-34 -58t-16 -83z" />
    <glyph glyph-name="ordmasculine" unicode="&#xba;" horiz-adv-x="798" 
d="M383 644q-81 0 -147 27.5t-115 84.5v-1q-48 55 -73 123.5t-25 153.5q0 91 26 162t76 123q53 53 118 79t146 26q80 0 145.5 -27.5t113.5 -78.5q47 -52 71.5 -123t24.5 -159q0 -166 -96 -277q-99 -113 -265 -113zM387 1272q-92 0 -144 -63q-57 -66 -57 -179q0 -111 55 -172
q53 -62 144 -62q94 0 144 63.5t50 176.5q0 112 -49.5 174t-142.5 62z" />
    <glyph glyph-name="oslash" unicode="&#xf8;" horiz-adv-x="1192" 
d="M970 840q42 -69 61.5 -150t19.5 -180q0 -117 -33 -213t-96 -170q-66 -73 -156 -112t-200 -39q-83 0 -157 24.5t-135 66.5q-10 -12 -22 -24.5l-24 -24.5h1q-15 -18 -33 -37.5l-35 -38.5l-23 -24l-20 -22l-110 103l160 180q-47 70 -68.5 150t-21.5 177q0 124 35 223.5
t101 172.5q69 69 161 107.5t200 38.5q88 0 162.5 -24.5t133.5 -69.5l39 43.5l41.5 47.5l40.5 46.5l37 40.5l113 -101zM762 838q-38 26 -86 41t-104 15q-76 0 -135 -25.5t-105 -75.5q-89 -101 -89 -289q0 -57 9 -105.5t31 -93.5zM380 186q40 -32 85.5 -44t103.5 -12
q76 0 134 25.5t100 73.5v-1q41 50 62 121.5t21 162.5q0 115 -32 198z" />
    <glyph glyph-name="questiondown" unicode="&#xbf;" horiz-adv-x="720" 
d="M436 655q15 -35 25 -82.5t10 -89.5q0 -48 -12.5 -88.5t-35 -76t-53.5 -68t-68 -64.5v1q-27 -24 -53.5 -51t-47 -58t-33.5 -66t-13 -76q0 -42 14.5 -75t40 -56.5t61.5 -35.5t80 -12q42 0 77 7t68 20q68 29 131 98l96 -122q-60 -55 -111 -89t-91 -48q-37 -11 -80.5 -18
t-90.5 -7q-77 0 -142.5 22t-113.5 64.5t-75.5 104t-27.5 139.5q0 58 15.5 106t40.5 88t57.5 74.5l66.5 67.5l74 72.5t45.5 52.5t23 44.5t6.5 48.5q0 18 -3.5 39.5t-8.5 44.5t-11.5 46l-12.5 43h152zM378 1041q24 0 44.5 -8.5t35 -24t23 -36t8.5 -44.5q0 -51 -31.5 -81.5
t-79.5 -30.5q-50 0 -82 30.5t-32 81.5q0 24 8.5 44.5t23.5 36t36 24t46 8.5z" />
    <glyph glyph-name="uni00A0" unicode="&#xa0;" horiz-adv-x="561" 
 />
    <glyph glyph-name="exclamdown" unicode="&#xa1;" horiz-adv-x="214" 
d="M101 816q-24 0 -45 8t-36 23t-24 35.5t-9 45.5q0 24 9 44.5t24 36t36 24t45 8.5t44.5 -8.5t35.5 -24t23.5 -36t8.5 -44.5q0 -51 -32 -81.5t-80 -30.5zM16 -378l9 1030h156l8 -1030h-173z" />
    <glyph glyph-name="logicalnot" unicode="&#xac;" horiz-adv-x="982" 
d="M742 135v379h-760v153h916v-532h-156z" />
    <glyph glyph-name="florin" unicode="&#x192;" horiz-adv-x="872" 
d="M752 1201q-36 51 -52 51q-64 0 -103 -41t-50 -112q-3 -22 -6.5 -43.5t-6.5 -43.5l-7 -41.5l-7 -42.5h154v-152h-174q-2 -11 -2.5 -20.5t-2.5 -19.5l-24 -172l-24 -171l-9.5 -67.5l-9.5 -67.5l-15 -102q-14 -103 -42 -183.5t-66 -126.5q-81 -105 -215 -105q-16 0 -41 6.5
t-63 20.5v151q39 -14 64 -19.5t37 -5.5q131 0 164 266l84 616h-92v152h113q6 43 13.5 91l14.5 90q23 143 103 219t201 76q107 -5 182 -118z" />
    <glyph glyph-name="guillemotleft" unicode="&#xab;" horiz-adv-x="794" 
d="M574 185l-288 351l287 356h205l-293 -356l41 -50l44 -52l34.5 -43l34.5 -42l25.5 -30l25.5 -31l22 -26l23.5 -28l22 -27t18.5 -22h-202zM279 185l-286 351l285 356h204l-292 -355l21.5 -26.5l21.5 -26.5l80 -95l54.5 -65.5l56.5 -66.5q6 -8 14 -17.5l16 -19.5l15.5 -19.5
l12.5 -15.5h-203z" />
    <glyph glyph-name="guillemotright" unicode="&#xbb;" horiz-adv-x="797" 
d="M486 185h-203l293 357l-85.5 102l-89.5 104l-28.5 34l-33 39l-31.5 38.5l-26 32.5h203l290 -351zM195 185h-208l295 357l-100 118l-105 124q-11 12 -23 26.5l-24.5 29l-23.5 28l-20 24.5h206l287 -350z" />
    <glyph glyph-name="ellipsis" unicode="&#x2026;" horiz-adv-x="1216" 
d="M1009 -15q-24 0 -44.5 8.5t-35.5 23.5t-23.5 36t-8.5 46q0 48 32 79.5t80 31.5q23 0 44 -8.5t36.5 -23t25 -35t9.5 -44.5q0 -25 -9.5 -46t-25 -36t-36.5 -23.5t-44 -8.5zM582 -15q-48 0 -80 32t-32 82q0 24 8.5 44.5t23.5 35t35.5 23t44.5 8.5t45 -8.5t36 -23t24 -35
t9 -44.5q0 -25 -9 -46t-24 -36t-36 -23.5t-45 -8.5zM160 -15q-24 0 -44.5 8.5t-35.5 23.5t-23.5 36t-8.5 46q0 48 32 79.5t80 31.5q24 0 44.5 -8.5t35.5 -23t24 -35t9 -44.5q0 -25 -9 -46t-24 -36t-35.5 -23.5t-44.5 -8.5z" />
    <glyph glyph-name="endash" unicode="&#x2013;" horiz-adv-x="1167" 
d="M50 514v159h1024v-159h-1024z" />
    <glyph glyph-name="emdash" unicode="&#x2014;" horiz-adv-x="2190" 
d="M68 514v159h1972v-159h-1972z" />
    <glyph glyph-name="quotedblleft" unicode="&#x201c;" horiz-adv-x="556" 
d="M400 912h-178l169 492h146zM171 912h-177l166 492h148z" />
    <glyph glyph-name="quotedblright" unicode="&#x201d;" horiz-adv-x="557" 
d="M375 912h-148l136 492h180zM144 912h-145l138 492h179z" />
    <glyph glyph-name="quoteleft" unicode="&#x2018;" horiz-adv-x="262" 
d="M144 912h-178l166 492h148z" />
    <glyph glyph-name="quoteright" unicode="&#x2019;" horiz-adv-x="261" 
d="M118 912h-145l137 492h177z" />
    <glyph glyph-name="divide" unicode="&#xf7;" horiz-adv-x="919" 
d="M444 801q-23 0 -43 9t-35 24t-23.5 35t-8.5 43q0 47 31.5 77.5t78.5 30.5q46 0 77 -30.5t31 -77.5q0 -23 -8.5 -43t-23 -35t-34 -24t-42.5 -9zM-15 514v153h916v-153h-916zM444 161q-23 0 -43 9t-35 24t-23.5 35t-8.5 43t8.5 42.5t23.5 34t35 23t43 8.5q46 0 77 -31
t31 -77q0 -23 -8.5 -43t-23 -35t-34 -24t-42.5 -9z" />
    <glyph glyph-name="ydieresis" unicode="&#xff;" horiz-adv-x="922" 
d="M436 -171q-29 -69 -59.5 -120.5t-67.5 -85.5t-82.5 -51t-102.5 -17q-23 0 -54.5 7.5t-66.5 19.5l55 164q37 -30 70 -30q20 0 40 11t39 29t36 42.5t31 51.5l23 54.5l23 55.5q10 22 18 42.5l17 41.5l-36.5 96l-36.5 96l-53.5 140.5l-53.5 140.5l-48 124.5l-50 132
l-49 130.5l-45 120h174l286 -770l71.5 184.5l73.5 186.5l79 201l78 198h175zM607 1100q-20 0 -38.5 7.5t-33 21t-23.5 32.5t-9 43q0 23 9 41.5t23 32t32.5 21t38.5 7.5q21 0 40.5 -7.5t34.5 -21t24 -32.5t9 -41q0 -45 -31 -74.5t-76 -29.5zM299 1100q-20 0 -38.5 7.5t-33 21
t-23.5 32.5t-9 43q0 23 9 41.5t23 32t32.5 21t37.5 7.5q21 0 40.5 -7.5t34.5 -21t24 -32.5t9 -41q0 -45 -30.5 -74.5t-75.5 -29.5z" />
    <glyph glyph-name="Ydieresis" unicode="&#x178;" horiz-adv-x="1106" 
d="M581 543v-543h-169v543l-42 85.5l-43 85.5l-63.5 128.5l-63.5 129.5l-56.5 114l-59 120l-58 118.5l-53.5 109.5h190l328 -677v1q3 -5 5.5 -10.5t6.5 -13.5l4.5 11t5.5 11l89.5 177.5l92.5 181.5v-1l28.5 58.5l30.5 60.5l53.5 104l49.5 97h188zM587 1447q-20 0 -38.5 7.5
t-33 21t-23.5 32.5t-9 43q0 23 9 41.5t23 32t32.5 21t37.5 7.5q21 0 40.5 -7.5t34.5 -21t24.5 -32.5t9.5 -41t-8.5 -41t-23 -33t-34 -22t-41.5 -8zM279 1447q-20 0 -39 7.5t-33.5 21t-23.5 32.5t-9 43q0 23 9 41.5t23 32t32.5 21t38.5 7.5q21 0 40 -7.5t34 -21t24 -32.5
t9 -41t-8 -41t-22 -33t-33.5 -22t-41.5 -8z" />
    <glyph glyph-name="Euro" unicode="&#x20ac;" horiz-adv-x="947" 
d="M898 66q-149 -90 -292 -90q-91 0 -168 35.5t-140 102.5q-58 63 -98.5 150t-57.5 199h-140v154h124q-1 14 -0.5 27.5t0.5 28.5q0 28 -0.5 45t1.5 42h-125v153h144q21 115 64 207.5t105 159.5q68 70 150 108t178 38q63 0 127 -17t128 -47v-185q-81 47 -146 71t-116 24
q-57 0 -110.5 -26.5t-97.5 -71.5h1q-39 -46 -69.5 -111t-47.5 -150h495v-153h-517q-1 -15 -0.5 -35t0.5 -40v-26v-11v-8v-9v-14h517v-154h-496q16 -78 44 -139.5t63 -103.5q40 -39 91.5 -64.5t105.5 -25.5q103 0 283 121v-185z" />
    <glyph glyph-name="guilsinglleft" unicode="&#x2039;" horiz-adv-x="447" 
d="M257 185l-289 351l288 356h202l-291 -355l50 -62l53 -64l46.5 -56l51 -62l48.5 -59.5l40 -48.5h-199z" />
    <glyph glyph-name="guilsinglright" unicode="&#x203a;" horiz-adv-x="447" 
d="M177 185h-207l296 357l-86 102l-90 104l-28 34l-32.5 39l-31.5 38.5l-26 32.5h204l286 -350z" />
    <glyph glyph-name="daggerdbl" unicode="&#x2021;" horiz-adv-x="680" 
d="M669 477l-265 25v-3q1 -5 1 -10.5t1 -10.5q5 -43 8.5 -90.5t8.5 -92.5q2 -19 4 -42.5t4 -40.5h-191l27 291l-68.5 -6t-69.5 -7q-16 -2 -35.5 -3.5l-39 -3t-38 -3.5t-33.5 -3v184l276 -20q1 4 1 7t1 7q2 13 4.5 26l4.5 24l2 10l2 10q4 20 7 40.5t7 42.5l-5.5 28t-4.5 27
l-6 33q-5 20 -7.5 37t-6.5 41q-44 -3 -88.5 -6.5t-89.5 -7.5q-8 -1 -18.5 -1.5t-20.5 -1.5q-13 -1 -30.5 -2t-27.5 -2v185l284 -28l-6.5 72l-7 77l-7 76l-6.5 68h191l-28 -291q45 5 93 9t93 9q18 2 41 4t39 4v-186l-257 21q-1 -5 -2 -12t-2 -12q-4 -13 -5 -22
q-2 -9 -3 -17.5t-3 -16.5q-3 -22 -6.5 -42l-7.5 -43q2 -8 2.5 -15t2.5 -14q3 -16 5.5 -31.5t5.5 -30.5q2 -15 4 -27t5 -26q2 -7 2.5 -11t2.5 -12q45 3 92 6.5t92 7.5q6 1 15 1.5t17 1.5t17.5 1.5t22.5 0.5v-183z" />
    <glyph glyph-name="periodcentered" unicode="&#xb7;" horiz-adv-x="262" 
d="M127 579q-24 0 -44.5 9t-36 24.5t-24 36t-8.5 43.5q0 24 8.5 44.5t24 35t36 23t44.5 8.5q23 0 43.5 -8.5t36.5 -23t25 -35t9 -44.5q0 -23 -9 -43.5t-25 -36t-36.5 -24.5t-43.5 -9z" />
    <glyph glyph-name="quotesinglbase" unicode="&#x201a;" horiz-adv-x="261" 
d="M119 -209h-146l137 488h179z" />
    <glyph glyph-name="quotedblbase" unicode="&#x201e;" horiz-adv-x="556" 
d="M375 -212h-147l136 491h179zM145 -212h-146l138 491h179z" />
    <glyph glyph-name="perthousand" unicode="&#x2030;" horiz-adv-x="2355" 
d="M402 676q-78 0 -142.5 27.5t-110.5 79.5q-45 53 -69 119t-24 147q0 90 25 158.5t73 119.5q100 103 256 103q77 0 140 -26.5t109 -76.5q45 -52 68.5 -120.5t23.5 -156.5q0 -158 -95 -267q-94 -107 -254 -107zM409 1278q-89 0 -140 -60.5t-51 -170.5q0 -52 12 -93t38 -73v1
q51 -57 136 -57q42 0 76.5 15.5t60.5 43.5l-1 -1q51 66 51 169q0 112 -48.5 169t-133.5 57zM425 -30h-180l844 1432h179zM1889 -24q-80 0 -142 27t-110 79q-91 104 -91 269q0 178 100 281q99 101 254 101q75 0 138.5 -27.5t108.5 -77.5q45 -52 68.5 -121t23.5 -155
q0 -157 -96 -267q-48 -54 -111 -81.5t-143 -27.5zM1898 580q-88 0 -140 -58h1q-52 -61 -52 -173q0 -51 12 -93t38 -72q48 -57 134 -57q46 0 79.5 14.5t57.5 42.5q52 64 52 170q0 113 -48.5 169.5t-133.5 56.5zM1127 -24q-79 0 -141.5 27t-110.5 79q-92 104 -92 269
q0 178 100 281q50 50 113 75.5t141 25.5q76 0 138.5 -27t108.5 -76q45 -52 68.5 -121t23.5 -157q0 -158 -95 -267q-47 -54 -110.5 -81.5t-143.5 -27.5zM1135 580q-44 0 -78.5 -15.5t-60.5 -42.5q-52 -64 -52 -173q0 -106 50 -165q48 -57 135 -57q46 0 79.5 14.5t57.5 42.5
q27 32 39.5 74t12.5 96q0 112 -48.5 169t-134.5 57z" />
    <glyph glyph-name="Iacute" unicode="&#xcd;" horiz-adv-x="463" 
d="M208 1434v-1434h-171v1434h171zM152 1448h-174l271 380h191z" />
    <glyph glyph-name="Icircumflex" unicode="&#xce;" horiz-adv-x="463" 
d="M208 1434v-1434h-171v1434h171zM247 1449l-126 192l-37 -56.5l-37 -57.5l-28 -40.5l-25 -37.5h-166l254 387h83l251 -387h-169z" />
    <glyph glyph-name="Idieresis" unicode="&#xcf;" horiz-adv-x="463" 
d="M208 1434v-1434h-171v1434h171zM270 1448q-20 0 -38.5 7.5t-33 21t-23.5 32.5t-9 43q0 23 9 41.5t23 32t32.5 21t37.5 7.5q21 0 40.5 -7.5t34.5 -21t24.5 -32.5t9.5 -41t-8.5 -41t-23 -33t-34 -22t-41.5 -8zM-38 1448q-20 0 -39 7.5t-33.5 21t-23.5 32.5t-9 43
q0 23 9 41.5t23 32t32.5 21t38.5 7.5q21 0 40 -7.5t34 -21t24 -32.5t9 -41t-8 -41t-22 -33t-33.5 -22t-41.5 -8z" />
    <glyph glyph-name="Igrave" unicode="&#xcc;" horiz-adv-x="463" 
d="M208 1434v-1434h-171v1434h171zM114 1448l-286 380h191l271 -380h-176z" />
    <glyph glyph-name="Uacute" unicode="&#xda;" horiz-adv-x="1327" 
d="M1056 581q0 -605 -521 -605q-498 0 -498 584v874h171v-861q0 -434 345 -434q333 0 333 421v874h170v-853zM555 1447h-174l271 380h191z" />
    <glyph glyph-name="Ucircumflex" unicode="&#xdb;" horiz-adv-x="1327" 
d="M1056 581q0 -605 -521 -605q-498 0 -498 584v874h171v-861q0 -434 345 -434q333 0 333 421v874h170v-853zM715 1449l-126 192l-37 -56.5l-37 -57.5l-28 -40.5l-25 -37.5h-166l254 387h83l251 -387h-169z" />
    <glyph glyph-name="Ugrave" unicode="&#xd9;" horiz-adv-x="1327" 
d="M1056 581q0 -605 -521 -605q-498 0 -498 584v874h171v-861q0 -434 345 -434q333 0 333 421v874h170v-853zM584 1448l-286 380h191l271 -380h-176z" />
    <glyph glyph-name="circumflex" unicode="&#x2c6;" horiz-adv-x="539" 
d="M384 1100l-126 192l-37 -56.5l-37 -57.5l-28 -40.5l-25 -37.5h-166l254 387h83l251 -387h-169z" />
    <glyph glyph-name="tilde" unicode="&#x2dc;" horiz-adv-x="730" 
d="M678 1394q0 -65 -14.5 -117.5t-41 -89.5t-64 -56.5t-84.5 -19.5q-38 0 -80.5 21t-85.5 58q-46 42 -84 42q-57 0 -57 -132h-141q0 72 13.5 124t38.5 84q27 35 64.5 54t83.5 19q78 0 173 -77q51 -46 84 -46q21 0 36 35t15 101h144z" />
    <glyph glyph-name="cedilla" unicode="&#xb8;" horiz-adv-x="415" 
d="M25 -249q42 -6 71.5 -8t44.5 -2q111 0 111 46q0 42 -97 42q-13 0 -36 -2t-61 -6v255h142v-108q110 -5 159.5 -49t49.5 -126q0 -195 -274 -195q-17 0 -44 1.5t-66 6.5v145z" />
    <glyph glyph-name="Scaron" unicode="&#x160;" horiz-adv-x="835" 
d="M546 1482h-83l-257 396h172l129 -196q1 2 2 3t2 3v-1l16.5 28.5t19.5 28.5v-1l17 25l18 27l29 42l27 41h170zM334 16q-93 4 -181 39.5t-170 100.5l107 132q69 -56 133.5 -83t124.5 -27q140 -1 213 55t73 156q0 42 -12 77.5t-34 61.5h1q-28 29 -87 71t-144 91
q-214 128 -273 212q-63 91 -63 210q0 162 125 272v-1q126 112 323 112q94 -4 182 -40t170 -101l-106 -131q-69 56 -133.5 83t-124.5 27q-123 0 -193 -61q-68 -60 -68 -149q0 -42 12 -78t33 -61h-1q14 -13 37.5 -31.5t54 -39.5l66 -44t73.5 -45q91 -52 160.5 -106t103.5 -97
q71 -89 71 -215q0 -173 -121 -282q-60 -55 -146.5 -82t-204.5 -26h-1z" />
    <glyph glyph-name="scaron" unicode="&#x161;" horiz-adv-x="716" 
d="M426 1100h-81l-253 387h168l127 -190l35.5 52.5t35.5 53.5v-1l10.5 16.5t11.5 16.5v-1q8 13 17.5 27l17.5 26h165zM77 281q83 -72 141 -93v1q30 -9 58 -15.5t48 -6.5q185 0 185 146q0 48 -43.5 85t-141.5 78q-147 65 -206 132q-31 36 -47.5 81.5t-16.5 97.5
q0 134 102 218q101 80 243 80q67 0 139 -24t151 -72l-63 -145q-66 44 -125.5 65.5t-110.5 21.5q-77 0 -127 -41h1q-45 -39 -45 -97q0 -24 8 -46.5t21 -39.5q18 -17 56 -40t89 -45q153 -71 214 -133q67 -67 67 -176q0 -132 -98 -217q-47 -41 -111.5 -62t-147.5 -21
q-76 0 -153.5 30t-161.5 90z" />
    <glyph glyph-name="Zcaron" unicode="&#x17d;" horiz-adv-x="1056" 
d="M649 1452h-83l-259 395h172l129 -196q2 4 4.5 7t4.5 7l16 24l16 24l16.5 25t17.5 25l29.5 43.5t26.5 40.5h169zM262 200h778v-162h-1029v79l787 1192h-722v163h977v-76z" />
    <glyph glyph-name="zcaron" unicode="&#x17e;" horiz-adv-x="880" 
d="M525 1100h-82l-252 387h168l127 -190l35.5 52.5t35.5 53.5v-1l10.5 16.5t11.5 16.5v-1q8 13 17.5 27l17.5 26h165zM271 190h575v-153h-827v83l592 788h-547v153h806v-74z" />
    <glyph glyph-name="brokenbar" unicode="&#xa6;" horiz-adv-x="221" 
d="M31 662v865h164v-865h-164zM31 -445v865h164v-865h-164z" />
    <glyph glyph-name="Eth" unicode="&#xd0;" horiz-adv-x="1331" 
d="M162 0v632h-141v160h141v642h379q358 0 543.5 -177.5t185.5 -520.5q0 -160 -53 -296t-150 -238q-101 -100 -238 -151t-308 -51h-359zM334 1271v-479h382v-160h-382v-470h173q290 0 436 145q152 143 152 426q0 538 -569 538h-192z" />
    <glyph glyph-name="eth" unicode="&#xf0;" horiz-adv-x="995" 
d="M485 1048q35 0 64.5 -3.5t57.5 -13.5q-25 35 -50.5 65.5l-51.5 59.5q-5 -3 -11 -4q-17 -8 -34 -17.5t-35 -17.5h1l-105.5 -53l-102.5 -50l-64 133l239 116q-53 46 -125 98.5l-163 115.5h270q43 -29 84.5 -62.5t85.5 -73.5l26 13l26 13h-1l46.5 23.5l46.5 22.5l69 35
q7 4 17.5 9l21 10l19.5 9.5l15 7.5l67 -134l-246 -119q63 -72 114 -156t86 -169q36 -93 58 -197.5t22 -198.5q0 -230 -118 -381q-126 -153 -338 -153q-223 0 -343 149q-58 72 -88 166.5t-30 214.5q0 121 32.5 217t95.5 171q66 78 151 116t191 38zM485 894q-138 0 -218 -103
q-88 -111 -88 -287q0 -178 82 -277q38 -48 92.5 -72.5t124.5 -24.5q132 0 208 99q82 100 82 283q0 382 -283 382z" />
    <glyph glyph-name="Yacute" unicode="&#xdd;" horiz-adv-x="1106" 
d="M581 543v-543h-169v543l-42 85.5l-43 85.5l-63.5 128.5l-63.5 129.5l-56.5 114l-59 120l-58 118.5l-53.5 109.5h190l328 -677v1q3 -5 5.5 -10.5t6.5 -13.5l4.5 11t5.5 11l89.5 177.5l92.5 181.5v-1l28.5 58.5l30.5 60.5l53.5 104l49.5 97h188zM424 1479h-174l271 380h191
z" />
    <glyph glyph-name="yacute" unicode="&#xfd;" horiz-adv-x="928" 
d="M462 -171q-29 -69 -60 -120.5t-68 -85.5t-82 -51t-102 -17q-26 0 -56.5 7.5t-66.5 20.5l53 165q22 -17 39.5 -24.5t34.5 -7.5q44 0 80 34t65 100l40.5 96.5l40.5 97.5l-31 83t-32 83l-58.5 154l-57.5 154v-1l-48 125l-50 131l-49.5 130l-45.5 121h173l287 -771
l150.5 385.5l150.5 385.5h176zM340 1100h-174l271 380h191z" />
    <glyph glyph-name="Thorn" unicode="&#xde;" horiz-adv-x="876" 
d="M211 320v-320h-169v1434h169v-226h197q468 0 468 -419q0 -210 -137 -340q-69 -64 -161.5 -96.5t-213.5 -32.5h-153zM211 1046v-565h155q165 0 250.5 76.5t85.5 218.5q0 270 -311 270h-180z" />
    <glyph glyph-name="thorn" unicode="&#xfe;" horiz-adv-x="966" 
d="M208 -435h-161v1915h161v-570q19 20 44 39.5t48 35.5q54 31 110 47t119 16q96 0 175.5 -37.5t135.5 -103.5q51 -66 80 -157.5t29 -203.5q0 -124 -32.5 -227.5t-90.5 -180.5q-64 -77 -149.5 -119.5t-188.5 -42.5q-85 0 -155 29t-125 84v-524zM208 284q80 -154 287 -154
q60 0 114 32t92 78q37 56 60.5 135t23.5 169q0 81 -20 147t-56 113q-36 42 -84.5 66t-107.5 24q-207 -1 -309 -205v-405z" />
    <glyph glyph-name="multiply" unicode="&#xd7;" horiz-adv-x="911" 
d="M748 173l-309 311l-69 -70.5l-72 -72.5l-85.5 -85l-82.5 -83l-109 108l310 308l-69.5 71l-71.5 72l-54 54l-60 58.5l-55 55.5l109 108l309 -310l69 70l72 73l54 54l58.5 57.5l55.5 55.5l109 -108l-310 -311l155 -154l155 -154z" />
    <glyph glyph-name="onenumerator" horiz-adv-x="542" 
d="M531 540h-512v152h182v542q-7 -2 -14.5 -4.5t-14.5 -4.5l-21 -8l-23 -8v1l-29.5 -9.5l-33.5 -11.5l-32.5 -11.5t-25.5 -8.5v163l349 110v-750h175v-152z" />
    <glyph glyph-name="twonumerator" horiz-adv-x="614" 
d="M579 540h-556v147l232 227q52 51 84 87.5t49 65t22.5 52t5.5 47.5q0 104 -109 104q-85 0 -242 -138v200q66 45 126 67.5t122 22.5q61 0 110 -17.5t83 -49.5t52.5 -77t18.5 -100q0 -40 -9.5 -78.5t-33.5 -81.5t-66 -93.5t-106 -113.5l-115 -112h332v-159z" />
    <glyph glyph-name="threenumerator" horiz-adv-x="572" 
d="M533 789q0 -58 -20 -107.5t-58.5 -86t-93.5 -57t-125 -20.5q-54 0 -108.5 14t-108.5 44v179q140 -88 219 -88q66 0 103 33t37 89q0 117 -179 117h-103v150h94q162 0 162 122q0 89 -104 89q-55 0 -197 -75v170q60 30 113.5 43t100.5 13q57 0 102 -16.5t77 -46.5t49 -72
t17 -93q0 -69 -21 -117t-66 -80q54 -32 82 -85t28 -119z" />
    <glyph glyph-name="onehalf" unicode="&#xbd;" horiz-adv-x="1510" 
d="M381 0h-180l843 1404h178zM1426 0h-555v145l234 229q45 46 75.5 82t48.5 66t26 55t8 49q0 103 -108 103q-44 0 -105 -33.5t-138 -102.5v200q66 43 127.5 66t121.5 23q61 0 109.5 -17.5t82.5 -50t52.5 -77.5t18.5 -99q0 -39 -9 -77.5t-33 -82t-65.5 -93.5t-105.5 -113
l-31 -29.5l-27.5 -27l-27.5 -27l-30 -29.5h331v-159zM377 540h-155v694q-23 -8 -45.5 -15t-44.5 -15q-11 -3 -25.5 -8l-29.5 -10l-28 -9.5l-21 -7.5v163l349 110v-902z" />
    <glyph glyph-name="onequarter" unicode="&#xbc;" horiz-adv-x="1437" 
d="M375 540h-155v694q-5 -2 -9.5 -3t-9.5 -3q-13 -5 -26 -9.5l-27 -9.5v1l-29.5 -9.5l-33.5 -11.5l-32.5 -11.5t-26.5 -8.5v163l349 110v-902zM378 0h-180l843 1404h178zM1252 203v-203h-151v203h-364v109l375 551h140v-513h102v-147h-102zM1101 594q-11 -15 -21 -31
l-21 -32l-17.5 -27.5l-17.5 -26.5q-16 -23 -28.5 -43t-26.5 -40v1q-5 -7 -7.5 -11.5l-5.5 -9.5l-6.5 -10.5t-9.5 -13.5h161v244z" />
    <glyph glyph-name="threequarters" unicode="&#xbe;" horiz-adv-x="1463" 
d="M538 789q0 -58 -20 -107.5t-58.5 -86t-94 -57t-125.5 -20.5q-54 0 -108.5 14t-108.5 44v179q140 -88 219 -88q66 0 102.5 33t36.5 89q0 117 -178 117h-103v150h94q162 0 162 122q0 89 -104 89q-55 0 -197 -75v170q60 30 113.5 43t100.5 13q57 0 102 -16.5t77 -46.5
t49 -72t17 -93q0 -66 -22.5 -115t-64.5 -82q54 -33 82.5 -85.5t28.5 -118.5zM400 0h-180l844 1404h179zM1276 203v-203h-152v203h-364v109l374 551h142v-513h102v-147h-102zM1124 593l-23.5 -34.5l-22.5 -33.5v1q-8 -13 -16.5 -25.5l-16.5 -23.5l-12 -19.5l-12 -18.5
q-9 -13 -15 -23l-12.5 -20l-14 -21l-17.5 -25h162v243z" />
    <glyph glyph-name="uni00AF" unicode="&#xaf;" horiz-adv-x="850" 
d="M46 1661v159h863v-159h-863z" />
    <glyph glyph-name="fournumerator" horiz-adv-x="626" 
d="M494 743v-203h-152v203h-364v108l375 553h141v-512h103v-149h-103zM344 1313l40 -42q3 2 8.5 5t7.5 5q8 5 22 13t24 13l-72 -128l-32 6zM372 1175q-2 -2 -3 -4l1 1q-2 -2 -10 -13l-18 -24v74l45 -9q-2 -2 -7.5 -11.5t-7.5 -13.5zM342 1131l-39.5 -59.5l-39.5 -58.5
l-22.5 -32.5l-20.5 -30.5l-19 -27.5l-21 -30.5h162v239z" />
    <glyph glyph-name="fivenumerator" horiz-adv-x="574" 
d="M549 820q0 -73 -24.5 -129.5t-68 -94.5t-102.5 -58t-127 -20q-53 0 -103.5 13.5t-99.5 42.5v166q72 -38 123.5 -55.5t81.5 -17.5q76 0 120 40.5t44 106.5q0 121 -174 121q-14 0 -38 -2t-49.5 -4.5t-48.5 -5.5t-33 -5v486h463v-154h-313v-163h43q66 0 122 -16.5t97 -50
t64 -83.5t23 -117z" />
    <glyph glyph-name="sevennumerator" horiz-adv-x="590" 
d="M248 530h-160l307 722h-405v152h589v-96z" />
    <glyph glyph-name="eightnumerator" horiz-adv-x="663" 
d="M458 781q2 46 -34.5 79.5t-108.5 60.5q-66 -24 -100.5 -56.5t-34.5 -80.5q0 -29 12 -49.5t31 -34t43.5 -19.5t50.5 -6q24 0 48.5 6.5t45 20t33.5 33t14 46.5zM432 1180q0 43 -30.5 66.5t-76.5 23.5q-24 0 -44.5 -6.5t-36.5 -18.5t-25 -28t-9 -35q0 -42 28.5 -67.5
t82.5 -48.5q54 23 82.5 49.5t28.5 64.5zM617 788q0 -72 -28 -122t-72 -81.5t-98 -46t-106 -14.5q-48 0 -99.5 13t-94.5 43t-70.5 78.5t-27.5 119.5t35 124.5t92 91.5q-49 34 -74 78t-25 108q0 63 24 108.5t63 75.5t88.5 44t100.5 14q49 0 97.5 -14.5t86.5 -43t61.5 -72.5
t23.5 -102q0 -71 -27.5 -115.5t-77.5 -78.5q61 -35 94.5 -85.5t33.5 -122.5z" />
    <glyph glyph-name="dotlessi.alt" horiz-adv-x="240" 
d="M31 0v1024h161v-1024h-161z" />
    <glyph glyph-name="currency" unicode="&#xa4;" horiz-adv-x="997" 
d="M828 256l-126 128q-50 -35 -105 -51t-118 -16q-126 0 -219 67l-65.5 -65l-63.5 -63l-109 110l131 126q-32 52 -49 107.5t-17 109.5q0 125 65 220q-8 7 -15.5 14.5t-15.5 14.5q-5 6 -11.5 12l-13.5 13l-16.5 16l-16.5 16q-10 9 -22 21.5t-19 17.5l109 110l131 -129
q104 66 217 66q121 0 220 -64l38 38l33 32l33 33l25 24l108 -110l-129 -126q34 -48 50 -101.5t16 -117.5q0 -59 -16.5 -113.5t-48.5 -103.5q18 -14 32 -32l22.5 -21l22.5 -22l28.5 -27l23.5 -23zM481 948q-51 0 -94 -17t-78 -52q-69 -72 -69 -168q0 -51 18.5 -92t53.5 -77
q72 -72 167 -72q97 0 168 71q71 73 71 170q0 101 -72 170q-70 67 -165 67z" />
    <glyph glyph-name="uni00B2" unicode="&#xb2;" horiz-adv-x="674" 
d="M579 840h-556v147l232 227q52 51 84 87.5t49 65t22.5 52t5.5 47.5q0 104 -109 104q-85 0 -242 -138v200q66 45 126 67.5t122 22.5q61 0 110 -17.5t83 -49.5t52.5 -77t18.5 -100q0 -40 -9.5 -78.5t-33.5 -81.5t-66 -93.5t-106 -113.5l-115 -112h332v-159z" />
    <glyph glyph-name="uni00B3" unicode="&#xb3;" horiz-adv-x="674" 
d="M533 1089q0 -58 -20 -107.5t-58.5 -86t-93.5 -57t-125 -20.5q-54 0 -108.5 14t-108.5 44v179q140 -88 219 -88q66 0 103 33t37 89q0 117 -179 117h-103v150h94q162 0 162 122q0 89 -104 89q-55 0 -197 -75v170q60 30 113.5 43t100.5 13q57 0 102 -16.5t77 -46.5t49 -72
t17 -93q0 -69 -21 -117t-66 -80q54 -32 82 -85t28 -119z" />
    <glyph glyph-name="uni00B9" unicode="&#xb9;" horiz-adv-x="674" 
d="M531 840h-512v152h182v542q-7 -2 -14.5 -4.5t-14.5 -4.5l-21 -8l-23 -8v1l-29.5 -9.5l-33.5 -11.5l-32.5 -11.5t-25.5 -8.5v163l349 110v-750h175v-152z" />
    <glyph glyph-name="s_t" unicode="&#xfb06;" horiz-adv-x="1341" 
d="M618 809q-65 43 -123.5 64t-109.5 21q-80 0 -127 -41h1q-45 -39 -45 -97q0 -26 6.5 -47.5t20.5 -37.5q17 -17 55 -40t91 -46q78 -35 131 -68.5t85 -64.5q65 -68 65 -176q0 -132 -97 -217q-48 -41 -112 -62t-147 -21q-74 0 -153 26.5t-167 78.5l79 162q40 -34 76 -57.5
t65 -34.5v1q31 -9 59 -15.5t48 -6.5q184 0 184 146q0 48 -42.5 85t-142.5 78q-146 66 -206 132q-30 35 -46.5 81t-16.5 98q0 135 102 218q49 39 110 59.5t134 20.5q23 0 45.5 -1.5t46.5 -5.5q-2 11 -2 20.5v22.5q0 67 30.5 122t79 93t107.5 59t116 21q43 0 81.5 -11.5
t68 -36t46.5 -62t17 -88.5v-157h250v-153h-250v-589q0 -78 22.5 -113t76.5 -35q45 0 109 41l51 -144q-108 -50 -172 -50q-248 0 -248 291v599h-170v153h170v135q0 19 -6.5 33.5t-18.5 24t-28 14t-33 4.5q-26 0 -53 -9t-48.5 -26.5t-35 -43.5t-13.5 -60q0 -26 12 -63t40 -84z
" />
    <glyph glyph-name="c_t" horiz-adv-x="1440" 
d="M792 871v9l-23 -32l-22 -30q-124 76 -233 76q-75 0 -134.5 -27.5t-106.5 -81.5q-96 -109 -96 -285q0 -172 87 -271q42 -49 96.5 -74t123.5 -25q133 0 256 92l94 -133q-99 -55 -187 -84t-167 -29q-210 0 -341 146q-62 72 -94 164.5t-32 208.5q0 118 38.5 220t105.5 177
q72 75 165 115.5t205 40.5h14q9 0 10 0.5t12 -0.5q-2 11 -2.5 23.5t-0.5 23.5q0 67 30.5 120.5t79 90.5t108.5 57t118 20q46 0 87 -12t72.5 -36.5t50 -63t18.5 -90.5v-157h250v-153h-250v-589q0 -78 21.5 -113t76.5 -35q41 0 109 42l51 -145q-106 -50 -172 -50
q-247 0 -247 291v599h-171zM725 1100q0 -45 33 -108l10 -5t24 -15v52h171v135q1 38 -25 56.5t-61 18.5q-27 0 -54 -9t-48.5 -26t-35.5 -42t-14 -57zM760 990l-2 2l-2 2z" />
    <glyph glyph-name="f_t" horiz-adv-x="1213" 
d="M751 1024v276h161v-276h250v-153h-250v-589q0 -78 22 -113t76 -35q48 0 109 40l52 -143q-109 -50 -172 -50q-248 0 -248 291v599h-402v-871h-161v871h-170v153h170v127q0 83 22 146t64 108q88 90 216 90q69 0 185 -57l-73 -144q-30 23 -59 35t-57 12q-137 0 -137 -198
v-119h402z" />
    <glyph glyph-name="ff" unicode="&#xfb00;" horiz-adv-x="1244" 
d="M713 1024v127q0 80 22 144.5t64 109.5q44 43 98.5 66.5t117.5 23.5q69 0 185 -57l-73 -144q-30 23 -59 35t-57 12q-137 0 -137 -198v-119h251v-153h-251v-871h-161v871h-363v-871h-161v871h-169v153h169v127q0 81 23 145t65 109q42 43 96.5 66.5t117.5 23.5q69 0 185 -57
l-73 -144q-30 23 -59 35t-57 12q-137 0 -137 -198v-119h363z" />
    <glyph glyph-name="ffi" unicode="&#xfb03;" horiz-adv-x="1448" 
d="M1352 1024v-1024h-160v871h-310v-871h-162v871h-362v-871h-161v871h-171v153h171v127q0 166 85 254q88 90 216 90q66 0 185 -58l-71 -143q-30 23 -59.5 35t-58.5 12q-136 0 -136 -198v-119h362v127q0 79 22 144t64 110q44 43 98 66.5t118 23.5q68 0 184 -58l-71 -143
q-31 23 -59.5 35t-57.5 12q-136 0 -136 -198v-119h470z" />
    <glyph glyph-name="ffl" unicode="&#xfb04;" horiz-adv-x="1708" 
d="M730 1024v127q0 80 22 144.5t64 109.5q44 43 98 66.5t117 23.5q297 0 332 -221v-992q0 -78 22 -113t76 -35q22 0 59 15t93 47v-169q-49 -24 -89.5 -35t-73.5 -11q-248 0 -248 291v992q-14 35 -58.5 56t-115.5 21q-137 0 -137 -198v-119h251v-153h-251v-871h-161v871h-364
v-871h-161v871h-171v153h171v127q0 83 22 146t64 108q88 90 216 90q69 0 185 -57l-73 -144q-30 23 -59 35t-57 12q-137 0 -137 -198v-119h364z" />
    <glyph glyph-name="l.alt" horiz-adv-x="240" 
d="M192 1h-161v1479h161v-1479z" />
    <glyph glyph-name="M.alt" horiz-adv-x="1628" 
d="M1373 0l-45 1066l-151 -325.5l-150 -325.5l-22 -48l-22 -48l-35.5 -77.5l-36.5 -77.5l-19 -40.5l-20 -43.5l-19.5 -42.5l-17.5 -37.5h-77l-492 1075q-2 -34 -3.5 -68t-3.5 -69l-6 -117v1q-2 -45 -4.5 -89.5t-4.5 -89.5q-4 -78 -7.5 -160t-7.5 -164.5t-7.5 -163
t-7.5 -155.5h-173l85 1434h146l527 -1160l46 102l46 104l78 174.5l79 173.5l47.5 107l49.5 111l89 199l85 189h145l78 -1434h-169z" />
    <glyph glyph-name="a.alt" 
d="M838 145q-71 -88 -151 -128.5t-171 -40.5q-112 0 -202 37.5t-156 112.5q-129 147 -129 380q0 124 35.5 223.5t101.5 172.5q68 69 160 107.5t200 38.5q88 0 165.5 -29.5t146.5 -86.5v92h162v-1024h-162v145zM523 894q-151 0 -240 -101q-89 -99 -89 -289q0 -171 89 -273h-1
q89 -101 237 -101q149 0 318 205v423q-85 71 -162.5 103.5t-151.5 32.5z" />
    <glyph glyph-name="aacute.alt" 
d="M838 145q-71 -88 -151 -128.5t-171 -40.5q-112 0 -202 37.5t-156 112.5q-129 147 -129 380q0 124 35.5 223.5t101.5 172.5q68 69 160 107.5t200 38.5q88 0 165.5 -29.5t146.5 -86.5v92h162v-1024h-162v145zM523 894q-151 0 -240 -101q-89 -99 -89 -289q0 -171 89 -273h-1
q89 -101 237 -101q149 0 318 205v423q-85 71 -162.5 103.5t-151.5 32.5zM472 1137h-174l271 380h191z" />
    <glyph glyph-name="agrave.alt" 
d="M838 145q-71 -88 -151 -128.5t-171 -40.5q-112 0 -202 37.5t-156 112.5q-129 147 -129 380q0 124 35.5 223.5t101.5 172.5q68 69 160 107.5t200 38.5q88 0 165.5 -29.5t146.5 -86.5v92h162v-1024h-162v145zM523 894q-151 0 -240 -101q-89 -99 -89 -289q0 -171 89 -273h-1
q89 -101 237 -101q149 0 318 205v423q-85 71 -162.5 103.5t-151.5 32.5zM584 1137l-286 380h191l271 -380h-176z" />
    <glyph glyph-name="acircumflex.alt" 
d="M838 145q-71 -88 -151 -128.5t-171 -40.5q-112 0 -202 37.5t-156 112.5q-129 147 -129 380q0 124 35.5 223.5t101.5 172.5q68 69 160 107.5t200 38.5q88 0 165.5 -29.5t146.5 -86.5v92h162v-1024h-162v145zM523 894q-151 0 -240 -101q-89 -99 -89 -289q0 -171 89 -273h-1
q89 -101 237 -101q149 0 318 205v423q-85 71 -162.5 103.5t-151.5 32.5zM656 1137l-126 192l-37 -56.5l-37 -57.5l-28 -40.5l-25 -37.5h-166l254 387h83l251 -387h-169z" />
    <glyph glyph-name="atilde.alt" 
d="M838 145q-71 -88 -151 -128.5t-171 -40.5q-112 0 -202 37.5t-156 112.5q-129 147 -129 380q0 124 35.5 223.5t101.5 172.5q68 69 160 107.5t200 38.5q88 0 165.5 -29.5t146.5 -86.5v92h162v-1024h-162v145zM523 894q-151 0 -240 -101q-89 -99 -89 -289q0 -171 89 -273h-1
q89 -101 237 -101q149 0 318 205v423q-85 71 -162.5 103.5t-151.5 32.5zM861 1431q0 -65 -14.5 -117.5t-41 -89.5t-64 -56.5t-84.5 -19.5q-38 0 -80.5 21t-85.5 58q-46 42 -84 42q-57 0 -57 -132h-141q0 72 13.5 124t38.5 84q27 35 64.5 54t83.5 19q78 0 173 -77
q51 -46 84 -46q21 0 36 35t15 101h144z" />
    <glyph glyph-name="adieresis.alt" 
d="M838 145q-71 -88 -151 -128.5t-171 -40.5q-112 0 -202 37.5t-156 112.5q-129 147 -129 380q0 124 35.5 223.5t101.5 172.5q68 69 160 107.5t200 38.5q88 0 165.5 -29.5t146.5 -86.5v92h162v-1024h-162v145zM523 894q-151 0 -240 -101q-89 -99 -89 -289q0 -171 89 -273h-1
q89 -101 237 -101q149 0 318 205v423q-85 71 -162.5 103.5t-151.5 32.5zM684 1137q-20 0 -38.5 7.5t-33 21t-23.5 32.5t-9 43q0 23 9 41.5t23 32t32.5 21t37.5 7.5q21 0 40.5 -7.5t34.5 -21t24.5 -32.5t9.5 -41t-8.5 -41t-23 -33t-34 -22t-41.5 -8zM376 1137q-20 0 -39 7.5
t-33.5 21t-23.5 32.5t-9 43q0 23 9 41.5t23 32t32.5 21t38.5 7.5q21 0 40 -7.5t34 -21t24 -32.5t9 -41t-8 -41t-22 -33t-33.5 -22t-41.5 -8z" />
    <glyph glyph-name="aring.alt" horiz-adv-x="1052" 
d="M517 1100q-48 0 -87.5 14t-71.5 40q-66 58 -66 154q0 94 65 151v-1q32 31 71.5 44.5t88.5 13.5q48 0 87.5 -13.5t71.5 -43.5q64 -59 64 -151q0 -90 -66 -152q-32 -27 -70.5 -41.5t-86.5 -14.5zM517 1379q-36 0 -58 -19.5t-22 -51.5t23 -51t57 -19q35 0 58 19.5t23 50.5
q0 35 -23.5 53t-57.5 18zM827 145q-71 -88 -150.5 -128.5t-171.5 -40.5q-226 0 -358 150q-128 146 -128 380q0 124 35 223.5t101 172.5q68 69 160.5 107.5t200.5 38.5q89 0 165.5 -29.5t145.5 -86.5v92h162v-1024h-162v145zM512 894q-76 0 -135 -25.5t-104 -75.5
q-90 -101 -90 -289q0 -171 89 -273h-1q45 -50 103.5 -75.5t133.5 -25.5q149 0 318 205v423q-85 71 -162 103.5t-152 32.5z" />
    <glyph glyph-name="Ccedilla" unicode="&#xc7;" horiz-adv-x="1193" 
d="M694 -24q-295 0 -482 199q-92 100 -138.5 227t-46.5 287q0 346 202 557q201 211 511 211q227 -4 424 -171l-132 -119q-69 65 -143 96.5t-151 31.5q-55 0 -109 -12t-104 -34t-94.5 -51.5t-81.5 -64.5q-71 -81 -109.5 -190.5t-38.5 -243.5q0 -125 37.5 -230.5t102.5 -180.5
q70 -69 162.5 -109t198.5 -40q78 0 151.5 31.5t142.5 96.5l132 -119q-196 -168 -434 -172zM404 -249q42 -6 71.5 -8t44.5 -2q111 0 111 46q0 42 -97 42q-13 0 -36 -2t-61 -6v255h142v-108q110 -5 159.5 -49t49.5 -126q0 -195 -274 -195q-17 0 -44 1.5t-66 6.5v145z" />
    <glyph glyph-name="Adieresis" unicode="&#xc4;" horiz-adv-x="1227" 
d="M1020 0l-155 422h-537l-39 -103.5l-40.5 -108l-40 -108l-37.5 -102.5h-184l541 1434h141l535 -1434h-184zM595 1155l-2 6v-1q-1 2 -1 2.5t-1 2.5q-2 3 -5 12l18 -1q-2 -3 -3 -6.5t-3 -6.5v1zM595 1155l-33 -90v1l-37.5 -103.5l-37.5 -101.5l-34.5 -97l-34.5 -96
l-14.5 -40.5l-15.5 -42.5h416zM766 1510q-20 0 -38.5 7.5t-33 21t-23.5 32.5t-9 43q0 23 9 41.5t23 32t32.5 21t37.5 7.5q21 0 40.5 -7.5t34.5 -21t24.5 -32.5t9.5 -41t-8.5 -41t-23 -33t-34 -22t-41.5 -8zM458 1510q-20 0 -39 7.5t-33.5 21t-23.5 32.5t-9 43q0 23 9 41.5
t23 32t32.5 21t38.5 7.5q21 0 40 -7.5t34 -21t24 -32.5t9 -41t-8 -41t-22 -33t-33.5 -22t-41.5 -8z" />
    <glyph glyph-name="Atilde" unicode="&#xc3;" horiz-adv-x="1227" 
d="M1020 0l-155 422h-537l-39 -103.5l-40.5 -108l-40 -108l-37.5 -102.5h-184l541 1434h141l535 -1434h-184zM595 1155l-2 6v-1q-1 2 -1 2.5t-1 2.5q-2 3 -5 12l18 -1q-2 -3 -3 -6.5t-3 -6.5v1zM595 1155l-33 -90v1l-37.5 -103.5l-37.5 -101.5l-34.5 -97l-34.5 -96
l-14.5 -40.5l-15.5 -42.5h416zM939 1804q0 -65 -14.5 -117.5t-41 -89.5t-64 -56.5t-84.5 -19.5q-38 0 -80.5 21t-85.5 58q-46 42 -84 42q-57 0 -57 -132h-141q0 72 13.5 124t38.5 84q27 35 64.5 54t83.5 19q78 0 173 -77q51 -46 84 -46q21 0 36 35t15 101h144z" />
    <glyph glyph-name="Aacute" unicode="&#xc1;" horiz-adv-x="1227" 
d="M1020 0l-155 422h-537l-39 -103.5l-40.5 -108l-40 -108l-37.5 -102.5h-184l541 1434h141l535 -1434h-184zM595 1155l-2 6v-1q-1 2 -1 2.5t-1 2.5q-2 3 -5 12l18 -1q-2 -3 -3 -6.5t-3 -6.5v1zM595 1155l-33 -90v1l-37.5 -103.5l-37.5 -101.5l-34.5 -97l-34.5 -96
l-14.5 -40.5l-15.5 -42.5h416zM556 1510h-174l271 380h191z" />
    <glyph glyph-name="Agrave" unicode="&#xc0;" horiz-adv-x="1227" 
d="M1020 0l-155 422h-537l-39 -103.5l-40.5 -108l-40 -108l-37.5 -102.5h-184l541 1434h141l535 -1434h-184zM595 1155l-2 6v-1q-1 2 -1 2.5t-1 2.5q-2 3 -5 12l18 -1q-2 -3 -3 -6.5t-3 -6.5v1zM595 1155l-33 -90v1l-37.5 -103.5l-37.5 -101.5l-34.5 -97l-34.5 -96
l-14.5 -40.5l-15.5 -42.5h416zM668 1510l-286 380h191l271 -380h-176z" />
    <glyph glyph-name="Acircumflex" unicode="&#xc2;" horiz-adv-x="1227" 
d="M1020 0l-155 422h-537l-39 -103.5l-40.5 -108l-40 -108l-37.5 -102.5h-184l541 1434h141l535 -1434h-184zM595 1155l-2 6v-1q-1 2 -1 2.5t-1 2.5q-2 3 -5 12l18 -1q-2 -3 -3 -6.5t-3 -6.5v1zM595 1155l-33 -90v1l-37.5 -103.5l-37.5 -101.5l-34.5 -97l-34.5 -96
l-14.5 -40.5l-15.5 -42.5h416zM738 1510l-126 192l-37 -56.5l-37 -57.5l-28 -40.5l-25 -37.5h-166l254 387h83l251 -387h-169z" />
    <glyph glyph-name="Edieresis" unicode="&#xcb;" horiz-adv-x="785" 
d="M47 0v1434h711v-163h-540v-467h502v-162h-502v-480h572v-162h-743zM545 1510q-20 0 -38.5 7.5t-33 21t-23.5 32.5t-9 43q0 23 9 41.5t23 32t32.5 21t37.5 7.5q21 0 40.5 -7.5t34.5 -21t24.5 -32.5t9.5 -41t-8.5 -41t-23 -33t-34 -22t-41.5 -8zM237 1510q-20 0 -39 7.5
t-33.5 21t-23.5 32.5t-9 43q0 23 9 41.5t23 32t32.5 21t38.5 7.5q21 0 40 -7.5t34 -21t24 -32.5t9 -41t-8 -41t-22 -33t-33.5 -22t-41.5 -8z" />
    <glyph glyph-name="Ecircumflex" unicode="&#xca;" horiz-adv-x="785" 
d="M47 0v1434h711v-163h-540v-467h502v-162h-502v-480h572v-162h-743zM517 1510l-126 192l-37 -56.5l-37 -57.5l-28 -40.5l-25 -37.5h-166l254 387h83l251 -387h-169z" />
    <glyph glyph-name="Eacute" unicode="&#xc9;" horiz-adv-x="785" 
d="M47 0v1434h711v-163h-540v-467h502v-162h-502v-480h572v-162h-743zM335 1510h-174l271 380h191z" />
    <glyph glyph-name="Egrave" unicode="&#xc8;" horiz-adv-x="785" 
d="M47 0v1434h711v-163h-540v-467h502v-162h-502v-480h572v-162h-743zM447 1510l-286 380h191l271 -380h-176z" />
    <glyph glyph-name="Ntilde" unicode="&#xd1;" horiz-adv-x="1235" 
d="M1028 0l-809 1095v-1095h-170v1434h130l802 -1087v1087h170v-1434h-123zM943 1804q0 -65 -14.5 -117.5t-41 -89.5t-64 -56.5t-84.5 -19.5q-38 0 -80.5 21t-85.5 58q-46 42 -84 42q-57 0 -57 -132h-141q0 72 13.5 124t38.5 84q27 35 64.5 54t83.5 19q78 0 173 -77
q51 -46 84 -46q21 0 36 35t15 101h144z" />
    <glyph glyph-name="Odieresis" unicode="&#xd6;" horiz-adv-x="1447" 
d="M698 -24q-304 0 -486 203q-181 206 -181 523q0 168 48.5 305.5t136.5 240.5q94 100 222.5 154.5t286.5 54.5q146 0 264.5 -49.5t206.5 -152.5h-1q182 -198 182 -517q0 -351 -185 -557q-187 -205 -494 -205zM708 1295q-112 0 -201 -40t-161 -119q-142 -159 -142 -423
q0 -265 136 -420q136 -154 356 -154q117 0 209.5 39.5t160.5 112.5h-1q67 78 102.5 186.5t35.5 245.5q0 136 -32.5 241.5t-100.5 180.5q-67 75 -156.5 112.5t-205.5 37.5zM876 1510q-20 0 -38.5 7.5t-33 21t-23.5 32.5t-9 43q0 23 9 41.5t23 32t32.5 21t37.5 7.5
q21 0 40.5 -7.5t34.5 -21t24.5 -32.5t9.5 -41t-8.5 -41t-23 -33t-34 -22t-41.5 -8zM568 1510q-20 0 -39 7.5t-33.5 21t-23.5 32.5t-9 43q0 23 9 41.5t23 32t32.5 21t38.5 7.5q21 0 40 -7.5t34 -21t24 -32.5t9 -41t-8 -41t-22 -33t-33.5 -22t-41.5 -8z" />
    <glyph glyph-name="Otilde" unicode="&#xd5;" horiz-adv-x="1447" 
d="M698 -24q-304 0 -486 203q-181 206 -181 523q0 168 48.5 305.5t136.5 240.5q94 100 222.5 154.5t286.5 54.5q146 0 264.5 -49.5t206.5 -152.5h-1q182 -198 182 -517q0 -351 -185 -557q-187 -205 -494 -205zM708 1295q-112 0 -201 -40t-161 -119q-142 -159 -142 -423
q0 -265 136 -420q136 -154 356 -154q117 0 209.5 39.5t160.5 112.5h-1q67 78 102.5 186.5t35.5 245.5q0 136 -32.5 241.5t-100.5 180.5q-67 75 -156.5 112.5t-205.5 37.5zM1049 1804q0 -65 -14.5 -117.5t-41 -89.5t-64 -56.5t-84.5 -19.5q-38 0 -80.5 21t-85.5 58
q-46 42 -84 42q-57 0 -57 -132h-141q0 72 13.5 124t38.5 84q27 35 64.5 54t83.5 19q78 0 173 -77q51 -46 84 -46q21 0 36 35t15 101h144z" />
    <glyph glyph-name="Ocircumflex" unicode="&#xd4;" horiz-adv-x="1447" 
d="M698 -24q-304 0 -486 203q-181 206 -181 523q0 168 48.5 305.5t136.5 240.5q94 100 222.5 154.5t286.5 54.5q146 0 264.5 -49.5t206.5 -152.5h-1q182 -198 182 -517q0 -351 -185 -557q-187 -205 -494 -205zM708 1295q-112 0 -201 -40t-161 -119q-142 -159 -142 -423
q0 -265 136 -420q136 -154 356 -154q117 0 209.5 39.5t160.5 112.5h-1q67 78 102.5 186.5t35.5 245.5q0 136 -32.5 241.5t-100.5 180.5q-67 75 -156.5 112.5t-205.5 37.5zM848 1510l-126 192l-37 -56.5l-37 -57.5l-28 -40.5l-25 -37.5h-166l254 387h83l251 -387h-169z" />
    <glyph glyph-name="Oacute" unicode="&#xd3;" horiz-adv-x="1447" 
d="M698 -24q-304 0 -486 203q-181 206 -181 523q0 168 48.5 305.5t136.5 240.5q94 100 222.5 154.5t286.5 54.5q146 0 264.5 -49.5t206.5 -152.5h-1q182 -198 182 -517q0 -351 -185 -557q-187 -205 -494 -205zM708 1295q-112 0 -201 -40t-161 -119q-142 -159 -142 -423
q0 -265 136 -420q136 -154 356 -154q117 0 209.5 39.5t160.5 112.5h-1q67 78 102.5 186.5t35.5 245.5q0 136 -32.5 241.5t-100.5 180.5q-67 75 -156.5 112.5t-205.5 37.5zM666 1510h-174l271 380h191z" />
    <glyph glyph-name="Ograve" unicode="&#xd2;" horiz-adv-x="1447" 
d="M698 -24q-304 0 -486 203q-181 206 -181 523q0 168 48.5 305.5t136.5 240.5q94 100 222.5 154.5t286.5 54.5q146 0 264.5 -49.5t206.5 -152.5h-1q182 -198 182 -517q0 -351 -185 -557q-187 -205 -494 -205zM708 1295q-112 0 -201 -40t-161 -119q-142 -159 -142 -423
q0 -265 136 -420q136 -154 356 -154q117 0 209.5 39.5t160.5 112.5h-1q67 78 102.5 186.5t35.5 245.5q0 136 -32.5 241.5t-100.5 180.5q-67 75 -156.5 112.5t-205.5 37.5zM778 1510l-286 380h191l271 -380h-176z" />
    </font>
</defs>
</svg>
